<svg width="40" height="41" viewBox="0 0 40 41" fill="none" xmlns="http://www.w3.org/2000/svg">
<g clip-path="url(#clip0_2139_17605)">
<path d="M26.072 18.2593C25.8822 18.2593 25.6996 18.1841 25.5657 18.0495L22.4498 14.9336C22.1697 14.6535 22.1697 14.2002 22.4498 13.9209L31.3343 5.03643C31.6143 4.75641 32.0676 4.75641 32.3469 5.03643L35.4636 8.15238C35.5982 8.28701 35.6734 8.46891 35.6734 8.65869C35.6734 8.84847 35.5982 9.03109 35.4636 9.16501L26.5791 18.0495C26.4444 18.1841 26.2625 18.2593 26.0727 18.2593H26.072ZM23.9687 14.4272L26.072 16.5306L33.9439 8.65869L31.8406 6.55537L23.9687 14.4272Z" fill="#CFCFCF"/>
<path d="M20.3592 20.8561C20.173 20.8561 19.9897 20.7838 19.8529 20.6463C19.6416 20.435 19.5836 20.1156 19.7075 19.8435L22.3043 14.1301C22.4017 13.9159 22.5972 13.7634 22.8285 13.7219C23.0598 13.6803 23.2968 13.7541 23.4623 13.9202L26.5782 17.0362C26.7444 17.2023 26.8181 17.4394 26.7766 17.6707C26.7351 17.902 26.5818 18.0975 26.3684 18.1949L20.655 20.7917C20.5597 20.8346 20.4588 20.8561 20.3585 20.8561H20.3592ZM23.1801 15.6641L21.8008 18.6977L24.8344 17.3184L23.1794 15.6633L23.1801 15.6641ZM24.4334 13.6653H8.85433C8.45902 13.6653 8.13818 13.3445 8.13818 12.9492C8.13818 12.5538 8.45902 12.233 8.85433 12.233H24.4334C24.8287 12.233 25.1495 12.5538 25.1495 12.9492C25.1495 13.3445 24.8287 13.6653 24.4334 13.6653ZM34.9571 9.37415C34.7674 9.37415 34.5847 9.29896 34.4508 9.16432L31.3349 6.04837C31.2002 5.91374 31.125 5.73184 31.125 5.54206C31.125 5.35228 31.2002 5.16966 31.3349 5.03574L33.6716 2.69824C34.3806 1.98926 35.5336 1.98926 36.2426 2.69824L37.8009 4.25658C38.144 4.59961 38.3338 5.05651 38.3338 5.54206C38.3338 6.0276 38.1447 6.4845 37.8009 6.82754L35.4642 9.16432C35.3295 9.29896 35.1476 9.37415 34.9578 9.37415H34.9571ZM32.8538 5.54206L34.9571 7.64538L36.7876 5.81491C36.8606 5.74186 36.9007 5.64518 36.9007 5.54206C36.9007 5.43893 36.8606 5.34225 36.7876 5.26921L35.2293 3.71087C35.1562 3.63783 35.0595 3.59772 34.9564 3.59772C34.8533 3.59772 34.7566 3.63783 34.6836 3.71087L32.8531 5.54134L32.8538 5.54206Z" fill="#CFCFCF"/>
<path d="M36.179 38.8328H5.6182C4.5626 38.8328 3.57002 38.4217 2.8238 37.6755C2.07757 36.9293 1.6665 35.9367 1.6665 34.8811V13.6681C1.6665 10.4978 4.24606 7.91821 7.41644 7.91821H8.85446C9.24977 7.91821 9.57061 8.23905 9.57061 8.63436V31.6448C9.57061 32.0402 9.24977 32.361 8.85446 32.361H5.6182C4.22887 32.361 3.0988 33.4911 3.0988 34.8804C3.0988 35.5536 3.3609 36.1859 3.83714 36.6622C4.31338 37.1384 4.94574 37.3998 5.61891 37.3998H36.179C36.5772 37.3998 36.9009 37.0761 36.9009 36.6779V14.3872C36.9009 13.989 36.5772 13.6653 36.179 13.6653H30.6668C30.2715 13.6653 29.9507 13.3444 29.9507 12.9491C29.9507 12.5538 30.2715 12.233 30.6668 12.233H36.179C37.3671 12.233 38.3332 13.1991 38.3332 14.3872V36.6786C38.3332 37.8667 37.3671 38.8328 36.179 38.8328ZM7.41644 9.3505C5.03597 9.3505 3.0988 11.287 3.0988 13.6681V31.8382C3.78343 31.2703 4.66143 30.9287 5.6182 30.9287H8.1376V9.3505H7.41572H7.41644Z" fill="#CFCFCF"/>
<path d="M34.022 35.2368H15.3256C14.9303 35.2368 14.6094 34.916 14.6094 34.5207V24.451H12.4495C12.0542 24.451 11.7334 24.1301 11.7334 23.7348V17.982C11.7334 17.5867 12.0542 17.2659 12.4495 17.2659C12.8449 17.2659 13.1657 17.5867 13.1657 17.982V23.0187H34.022C34.4173 23.0187 34.7381 23.3395 34.7381 23.7348C34.7381 24.1301 34.4173 24.451 34.022 24.451H31.8621V30.2095H34.022C34.4173 30.2095 34.7381 30.5303 34.7381 30.9256C34.7381 31.3209 34.4173 31.6418 34.022 31.6418H21.7981C21.4028 31.6418 21.082 31.3209 21.082 30.9256C21.082 30.5303 21.4028 30.2095 21.7981 30.2095H23.958V24.451H16.0424V33.8045H34.022C34.4173 33.8045 34.7381 34.1254 34.7381 34.5207C34.7381 34.916 34.4173 35.2368 34.022 35.2368ZM25.3903 30.2095H30.4298V24.451H25.3903V30.2095ZM20.3601 20.8559H16.0453C15.65 20.8559 15.3292 20.5351 15.3292 20.1398C15.3292 19.7445 15.65 19.4236 16.0453 19.4236H20.3601C20.7554 19.4236 21.0762 19.7445 21.0762 20.1398C21.0762 20.5351 20.7554 20.8559 20.3601 20.8559Z" fill="#CFCFCF"/>
</g>
<defs>
<clipPath id="clip0_2139_17605">
<rect width="36.6667" height="36.6659" fill="white" transform="translate(1.6665 2.16675)"/>
</clipPath>
</defs>
</svg>
