<svg width="48" height="48" viewBox="0 0 48 48" fill="none" xmlns="http://www.w3.org/2000/svg">
<g clip-path="url(#clip0_2148_2305)">
<path d="M31.2867 21.311C31.0589 21.311 30.8398 21.2208 30.6791 21.0592L26.9399 17.3201C26.6039 16.9841 26.6039 16.4401 26.9399 16.1049L37.6013 5.44354C37.9374 5.10752 38.4813 5.10752 38.8165 5.44354L42.5565 9.18268C42.7181 9.34424 42.8083 9.56252 42.8083 9.79026C42.8083 10.018 42.7181 10.2371 42.5565 10.3978L31.8951 21.0592C31.7335 21.2208 31.5153 21.311 31.2875 21.311H31.2867ZM28.7627 16.7125L31.2867 19.2365L40.7329 9.79026L38.2089 7.26627L28.7627 16.7125Z" fill="#D2B26C"/>
<path d="M24.4314 24.4271C24.208 24.4271 23.988 24.3403 23.8238 24.1753C23.5703 23.9218 23.5007 23.5385 23.6494 23.212L26.7655 16.3559C26.8823 16.0989 27.117 15.9159 27.3945 15.866C27.6721 15.8162 27.9566 15.9047 28.1551 16.1041L31.8942 19.8432C32.0936 20.0426 32.1821 20.327 32.1323 20.6046C32.0824 20.8822 31.8985 21.1168 31.6424 21.2337L24.7863 24.3498C24.672 24.4013 24.5509 24.4271 24.4306 24.4271H24.4314ZM27.8165 18.1966L26.1613 21.837L29.8016 20.1818L27.8156 18.1958L27.8165 18.1966ZM29.3204 15.7981H10.6255C10.1512 15.7981 9.76617 15.4131 9.76617 14.9388C9.76617 14.4644 10.1512 14.0794 10.6255 14.0794H29.3204C29.7948 14.0794 30.1798 14.4644 30.1798 14.9388C30.1798 15.4131 29.7948 15.7981 29.3204 15.7981ZM41.9489 10.6488C41.7212 10.6488 41.502 10.5585 41.3413 10.397L37.6022 6.65781C37.4406 6.49625 37.3504 6.27797 37.3504 6.05024C37.3504 5.8225 37.4406 5.60336 37.6022 5.44266L40.4063 2.63766C41.2571 1.78688 42.6407 1.78688 43.4915 2.63766L45.3615 4.50766C45.7731 4.9193 46.0009 5.46758 46.0009 6.05024C46.0009 6.63289 45.774 7.18117 45.3615 7.59281L42.5573 10.397C42.3958 10.5585 42.1775 10.6488 41.9498 10.6488H41.9489ZM39.4249 6.05024L41.9489 8.57422L44.1455 6.37766C44.2331 6.29 44.2813 6.17399 44.2813 6.05024C44.2813 5.92649 44.2331 5.81047 44.1455 5.72281L42.2755 3.85281C42.1878 3.76516 42.0718 3.71703 41.9481 3.71703C41.8243 3.71703 41.7083 3.76516 41.6206 3.85281L39.4241 6.04938L39.4249 6.05024Z" fill="#D2B26C"/>
<path d="M43.415 45.9991H6.74203C5.47531 45.9991 4.28422 45.5058 3.38875 44.6104C2.49328 43.7149 2 42.5238 2 41.2571V15.8015C2 11.9971 5.09547 8.90161 8.89992 8.90161H10.6255C11.0999 8.90161 11.4849 9.28661 11.4849 9.76099V37.3736C11.4849 37.8479 11.0999 38.2329 10.6255 38.2329H6.74203C5.07484 38.2329 3.71875 39.589 3.71875 41.2562C3.71875 42.064 4.03328 42.8229 4.60477 43.3943C5.17625 43.9658 5.93508 44.2795 6.74289 44.2795H43.415C43.8928 44.2795 44.2812 43.8911 44.2812 43.4132V16.6643C44.2812 16.1865 43.8928 15.7981 43.415 15.7981H36.8004C36.326 15.7981 35.941 15.4131 35.941 14.9387C35.941 14.4643 36.326 14.0793 36.8004 14.0793H43.415C44.8407 14.0793 46 15.2386 46 16.6643V43.4141C46 44.8398 44.8407 45.9991 43.415 45.9991ZM8.89992 10.6204C6.04336 10.6204 3.71875 12.9441 3.71875 15.8015V37.6056C4.54031 36.9241 5.59391 36.5142 6.74203 36.5142H9.76531V10.6204H8.89906H8.89992Z" fill="#D2B26C"/>
<path d="M40.8266 41.6842H18.3909C17.9165 41.6842 17.5315 41.2992 17.5315 40.8249V28.7412H14.9396C14.4653 28.7412 14.0803 28.3562 14.0803 27.8818V20.9785C14.0803 20.5041 14.4653 20.1191 14.9396 20.1191C15.414 20.1191 15.799 20.5041 15.799 20.9785V27.0224H40.8266C41.301 27.0224 41.686 27.4074 41.686 27.8818C41.686 28.3562 41.301 28.7412 40.8266 28.7412H38.2347V35.6514H40.8266C41.301 35.6514 41.686 36.0364 41.686 36.5108C41.686 36.9852 41.301 37.3702 40.8266 37.3702H26.1579C25.6835 37.3702 25.2985 36.9852 25.2985 36.5108C25.2985 36.0364 25.6835 35.6514 26.1579 35.6514H28.7498V28.7412H19.2511V39.9655H40.8266C41.301 39.9655 41.686 40.3505 41.686 40.8249C41.686 41.2992 41.301 41.6842 40.8266 41.6842ZM30.4685 35.6514H36.516V28.7412H30.4685V35.6514ZM24.4323 24.4271H19.2546C18.7802 24.4271 18.3952 24.0421 18.3952 23.5678C18.3952 23.0934 18.7802 22.7084 19.2546 22.7084H24.4323C24.9067 22.7084 25.2917 23.0934 25.2917 23.5678C25.2917 24.0421 24.9067 24.4271 24.4323 24.4271Z" fill="#D2B26C"/>
</g>
<defs>
<clipPath id="clip0_2148_2305">
<rect width="44" height="43.9991" fill="white" transform="translate(2 2)"/>
</clipPath>
</defs>
</svg>
