<svg width="32" height="32" viewBox="0 0 32 32" fill="none" xmlns="http://www.w3.org/2000/svg">
<path d="M14.9681 27.2425C14.914 27.4588 14.7892 27.6509 14.6134 27.7881C14.4376 27.9254 14.2211 28 13.9981 28C13.9138 28.0004 13.8298 27.9903 13.7481 27.97L9.74806 26.97C9.6367 26.942 9.53099 26.8951 9.43556 26.8312L6.43556 24.8312C6.21494 24.6841 6.06182 24.4552 6.0099 24.1952C5.95797 23.9351 6.01149 23.665 6.15869 23.4444C6.30588 23.2237 6.53469 23.0706 6.79478 23.0187C7.05487 22.9668 7.32494 23.0203 7.54556 23.1675L10.4006 25.0713L14.2331 26.03C14.3611 26.061 14.4818 26.1171 14.5881 26.1949C14.6944 26.2727 14.7843 26.3708 14.8526 26.4835C14.9209 26.5961 14.9663 26.7212 14.9861 26.8515C15.0059 26.9817 14.9998 27.1146 14.9681 27.2425ZM31.5543 15.185C31.4723 15.4342 31.3416 15.6647 31.17 15.8632C30.9984 16.0616 30.7891 16.2241 30.5543 16.3413L27.5943 17.8213L20.7093 24.7075C20.5871 24.8296 20.4354 24.9179 20.2689 24.9639C20.1024 25.0099 19.9268 25.012 19.7593 24.97L11.7593 22.97C11.6377 22.9395 11.5228 22.8865 11.4206 22.8137L4.48056 17.8588L1.44556 16.3413C0.971234 16.1041 0.610491 15.6883 0.442656 15.1853C0.274821 14.6823 0.313635 14.1332 0.550564 13.6588L3.65681 7.4475C3.89393 6.97317 4.30972 6.61243 4.81276 6.44459C5.31579 6.27676 5.86489 6.31557 6.33931 6.5525L9.09681 7.9275L15.7218 6.035C15.9015 5.98359 16.0921 5.98359 16.2718 6.035L22.8968 7.9275L25.6543 6.5525C26.1287 6.31557 26.6778 6.27676 27.1809 6.44459C27.6839 6.61243 28.0997 6.97317 28.3368 7.4475L31.4431 13.6588C31.5615 13.8932 31.6324 14.1488 31.6515 14.4107C31.6706 14.6727 31.6375 14.9359 31.5543 15.185ZM25.7818 16.8025L22.3806 10H18.4031L12.9981 15.25C14.5806 16.2613 17.0618 16.54 19.2881 14.2963C19.4619 14.121 19.6945 14.0163 19.9409 14.0022C20.1874 13.9881 20.4304 14.0657 20.6231 14.22L24.9243 17.6663L25.7818 16.8025ZM2.33931 14.5525L4.55056 15.6588L7.65681 9.4475L5.44556 8.34125L2.33931 14.5525ZM23.4981 19.0825L20.0343 16.3088C17.5918 18.3088 14.4906 18.5725 11.9206 16.9338C11.6678 16.7729 11.4543 16.5574 11.296 16.303C11.1377 16.0486 11.0386 15.7619 11.0059 15.4641C10.9733 15.1663 11.008 14.8649 11.1074 14.5823C11.2069 14.2997 11.3686 14.043 11.5806 13.8313C11.5836 13.8276 11.5869 13.8243 11.5906 13.8213L17.1981 8.3825L15.9981 8.04L9.69556 9.84125L6.27431 16.6825L12.4243 21.0763L19.6918 22.8925L23.4981 19.0825ZM29.6531 14.5525L26.5506 8.34125L24.3393 9.4475L27.4456 15.6588L29.6531 14.5525Z" fill="white"/>
</svg>
