<svg width="48" height="48" viewBox="0 0 48 48" fill="none" xmlns="http://www.w3.org/2000/svg">
<g clip-path="url(#clip0_2148_2265)">
<path d="M15.9589 46H11.0738C10.5848 46 10.188 45.615 10.188 45.1406V37.3831C10.188 36.9087 10.5848 36.5237 11.0738 36.5237H15.9589C16.4478 36.5237 16.8446 36.9087 16.8446 37.3831V45.1406C16.8446 45.615 16.4478 46 15.9589 46ZM11.9596 44.2813H15.0731V38.2424H11.9596V44.2813Z" fill="#D2B26C"/>
<path d="M21.146 46H5.88578C5.39683 46 5 45.615 5 45.1406V12.7559C5 12.2815 5.39683 11.8965 5.88578 11.8965H21.146C21.635 11.8965 22.0318 12.2815 22.0318 12.7559V45.1406C22.0318 45.615 21.635 46 21.146 46ZM6.77156 44.2812H20.2602V13.6153H6.77156V44.2812Z" fill="#D2B26C"/>
<path d="M17.533 13.6153H9.49894C9.00999 13.6153 8.61316 13.2303 8.61316 12.7559V8.91797C8.61316 8.44359 9.00999 8.05859 9.49894 8.05859H17.5339C18.0228 8.05859 18.4196 8.44359 18.4196 8.91797V12.7559C18.4196 13.2303 18.0228 13.6153 17.5339 13.6153H17.533ZM10.3838 11.8966H16.6472V9.77734H10.3847V11.8966H10.3838Z" fill="#D2B26C"/>
<path d="M16.711 33.3715H10.3218C9.83286 33.3715 9.43604 32.9865 9.43604 32.5121C9.43604 32.0377 9.83286 31.6527 10.3218 31.6527H16.711C17.1999 31.6527 17.5967 32.0377 17.5967 32.5121C17.5967 32.9865 17.1999 33.3715 16.711 33.3715ZM16.711 28.272H10.3218C9.83286 28.272 9.43604 27.887 9.43604 27.4126C9.43604 26.9382 9.83286 26.5532 10.3218 26.5532H16.711C17.1999 26.5532 17.5967 26.9382 17.5967 27.4126C17.5967 27.887 17.1999 28.272 16.711 28.272ZM16.711 23.1724H10.3218C9.83286 23.1724 9.43604 22.7874 9.43604 22.3131C9.43604 21.8387 9.83286 21.4537 10.3218 21.4537H16.711C17.1999 21.4537 17.5967 21.8387 17.5967 22.3131C17.5967 22.7874 17.1999 23.1724 16.711 23.1724ZM16.711 18.0729H10.3218C9.83286 18.0729 9.43604 17.6879 9.43604 17.2135C9.43604 16.7392 9.83286 16.3542 10.3218 16.3542H16.711C17.1999 16.3542 17.5967 16.7392 17.5967 17.2135C17.5967 17.6879 17.1999 18.0729 16.711 18.0729ZM13.5168 9.48603C13.0279 9.48603 12.631 9.10103 12.631 8.62666V6.33728C12.631 5.86291 13.0279 5.47791 13.5168 5.47791C14.0058 5.47791 14.4026 5.86291 14.4026 6.33728V8.62666C14.4026 9.10103 14.0058 9.48603 13.5168 9.48603Z" fill="#D2B26C"/>
<path d="M34.904 46H28.3572C27.8683 46 27.4714 45.615 27.4714 45.1406V38.63C27.4714 38.1556 27.8683 37.7706 28.3572 37.7706H34.904C35.393 37.7706 35.7898 38.1556 35.7898 38.63V45.1406C35.7898 45.615 35.393 46 34.904 46ZM29.243 44.2813H34.0182V39.4894H29.243V44.2813Z" fill="#D2B26C"/>
<path d="M42.1142 46H21.1469C20.6579 46 20.2611 45.615 20.2611 45.1406V2.85935C20.2611 2.59982 20.3825 2.35318 20.5906 2.19075C20.7988 2.02747 21.0725 1.96474 21.3347 2.01974L42.3011 6.43349C42.7086 6.51943 42.9991 6.86919 42.9991 7.2731V45.1406C42.9991 45.615 42.6023 46 42.1133 46H42.1142ZM22.0336 44.2812H41.2284V7.96661L22.0327 3.92497V44.2812H22.0336Z" fill="#D2B26C"/>
<path d="M38.2026 34.7637H25.0585C24.5696 34.7637 24.1727 34.3787 24.1727 33.9043V27.7701C24.1727 27.2957 24.5696 26.9107 25.0585 26.9107H38.2026C38.6916 26.9107 39.0884 27.2957 39.0884 27.7701V33.9043C39.0884 34.3787 38.6916 34.7637 38.2026 34.7637ZM25.9443 33.045H37.3168V28.6295H25.9443V33.045ZM38.2026 25.0923H25.0585C24.5696 25.0923 24.1727 24.7073 24.1727 24.2329V18.0987C24.1727 17.6243 24.5696 17.2393 25.0585 17.2393H38.2026C38.6916 17.2393 39.0884 17.6243 39.0884 18.0987V24.2329C39.0884 24.7073 38.6916 25.0923 38.2026 25.0923ZM25.9443 23.3735H37.3168V18.9581H25.9443V23.3735ZM38.2026 15.4209H25.0585C24.5696 15.4209 24.1727 15.0359 24.1727 14.5615V7.56534C24.1727 7.30581 24.2941 7.05917 24.5022 6.89675C24.7104 6.73347 24.985 6.67073 25.2463 6.72573L38.3904 9.49292C38.7979 9.57886 39.0884 9.92862 39.0884 10.3325V14.5615C39.0884 15.0359 38.6916 15.4209 38.2026 15.4209ZM25.9443 13.7021H37.3168V11.0252L25.9443 8.63097V13.7021Z" fill="#D2B26C"/>
</g>
<defs>
<clipPath id="clip0_2148_2265">
<rect width="38" height="44" fill="white" transform="translate(5 2)"/>
</clipPath>
</defs>
</svg>
