<svg width="40" height="41" viewBox="0 0 40 41" fill="none" xmlns="http://www.w3.org/2000/svg">
<g clip-path="url(#clip0_2139_17576)">
<path d="M13.2988 38.8335H9.2279C8.82044 38.8335 8.48975 38.5126 8.48975 38.1173V31.6527C8.48975 31.2574 8.82044 30.9365 9.2279 30.9365H13.2988C13.7063 30.9365 14.0369 31.2574 14.0369 31.6527V38.1173C14.0369 38.5126 13.7063 38.8335 13.2988 38.8335ZM9.96605 37.4012H12.5606V32.3688H9.96605V37.4012Z" fill="#CFCFCF"/>
<path d="M17.6215 38.8334H4.90465C4.4972 38.8334 4.1665 38.5125 4.1665 38.1172V11.13C4.1665 10.7347 4.4972 10.4138 4.90465 10.4138H17.6215C18.029 10.4138 18.3597 10.7347 18.3597 11.13V38.1172C18.3597 38.5125 18.029 38.8334 17.6215 38.8334ZM5.64281 37.4011H16.8834V11.8461H5.64281V37.4011Z" fill="#CFCFCF"/>
<path d="M14.6104 11.8462H7.9154C7.50794 11.8462 7.17725 11.5253 7.17725 11.13V7.93172C7.17725 7.53641 7.50794 7.21558 7.9154 7.21558H14.6112C15.0186 7.21558 15.3493 7.53641 15.3493 7.93172V11.13C15.3493 11.5253 15.0186 11.8462 14.6112 11.8462H14.6104ZM8.65281 10.4139H13.8723V8.64787H8.65355V10.4139H8.65281Z" fill="#CFCFCF"/>
<path d="M13.9257 28.3096H8.60143C8.19397 28.3096 7.86328 27.9888 7.86328 27.5935C7.86328 27.1981 8.19397 26.8773 8.60143 26.8773H13.9257C14.3332 26.8773 14.6639 27.1981 14.6639 27.5935C14.6639 27.9888 14.3332 28.3096 13.9257 28.3096ZM13.9257 24.06H8.60143C8.19397 24.06 7.86328 23.7392 7.86328 23.3438C7.86328 22.9485 8.19397 22.6277 8.60143 22.6277H13.9257C14.3332 22.6277 14.6639 22.9485 14.6639 23.3438C14.6639 23.7392 14.3332 24.06 13.9257 24.06ZM13.9257 19.8104H8.60143C8.19397 19.8104 7.86328 19.4896 7.86328 19.0942C7.86328 18.6989 8.19397 18.3781 8.60143 18.3781H13.9257C14.3332 18.3781 14.6639 18.6989 14.6639 19.0942C14.6639 19.4896 14.3332 19.8104 13.9257 19.8104ZM13.9257 15.5608H8.60143C8.19397 15.5608 7.86328 15.2399 7.86328 14.8446C7.86328 14.4493 8.19397 14.1285 8.60143 14.1285H13.9257C14.3332 14.1285 14.6639 14.4493 14.6639 14.8446C14.6639 15.2399 14.3332 15.5608 13.9257 15.5608ZM11.2639 8.40505C10.8565 8.40505 10.5258 8.08421 10.5258 7.6889V5.78109C10.5258 5.38577 10.8565 5.06494 11.2639 5.06494C11.6714 5.06494 12.0021 5.38577 12.0021 5.78109V7.6889C12.0021 8.08421 11.6714 8.40505 11.2639 8.40505Z" fill="#CFCFCF"/>
<path d="M29.0864 38.8334H23.6307C23.2233 38.8334 22.8926 38.5126 22.8926 38.1173V32.6917C22.8926 32.2964 23.2233 31.9756 23.6307 31.9756H29.0864C29.4939 31.9756 29.8246 32.2964 29.8246 32.6917V38.1173C29.8246 38.5126 29.4939 38.8334 29.0864 38.8334ZM24.3689 37.4011H28.3482V33.4079H24.3689V37.4011Z" fill="#CFCFCF"/>
<path d="M35.0952 38.8334H17.6224C17.215 38.8334 16.8843 38.5126 16.8843 38.1173V2.88291C16.8843 2.66664 16.9854 2.4611 17.1589 2.32575C17.3323 2.18968 17.5604 2.1374 17.7789 2.18324L35.2509 5.86136C35.5905 5.93298 35.8326 6.22445 35.8326 6.56104V38.1173C35.8326 38.5126 35.5019 38.8334 35.0945 38.8334H35.0952ZM18.3613 37.4011H34.357V7.13897L18.3606 3.77093V37.4011H18.3613Z" fill="#CFCFCF"/>
<path d="M31.8351 29.4698H20.8817C20.4742 29.4698 20.1436 29.149 20.1436 28.7537V23.6418C20.1436 23.2465 20.4742 22.9257 20.8817 22.9257H31.8351C32.2426 22.9257 32.5733 23.2465 32.5733 23.6418V28.7537C32.5733 29.149 32.2426 29.4698 31.8351 29.4698ZM21.6199 28.0376H31.097V24.358H21.6199V28.0376ZM31.8351 21.4103H20.8817C20.4742 21.4103 20.1436 21.0895 20.1436 20.6942V15.5823C20.1436 15.187 20.4742 14.8662 20.8817 14.8662H31.8351C32.2426 14.8662 32.5733 15.187 32.5733 15.5823V20.6942C32.5733 21.0895 32.2426 21.4103 31.8351 21.4103ZM21.6199 19.978H31.097V16.2985H21.6199V19.978ZM31.8351 13.3508H20.8817C20.4742 13.3508 20.1436 13.03 20.1436 12.6347V6.80454C20.1436 6.58827 20.2447 6.38273 20.4181 6.24738C20.5916 6.11131 20.8204 6.05904 21.0382 6.10487L31.9916 8.41086C32.3312 8.48247 32.5733 8.77394 32.5733 9.11053V12.6347C32.5733 13.03 32.2426 13.3508 31.8351 13.3508ZM21.6199 11.9185H31.097V9.68775L21.6199 7.69256V11.9185Z" fill="#CFCFCF"/>
</g>
<defs>
<clipPath id="clip0_2139_17576">
<rect width="31.6667" height="36.6667" fill="white" transform="translate(4.1665 2.16675)"/>
</clipPath>
</defs>
</svg>
