<svg width="28" height="28" viewBox="0 0 28 28" fill="none" xmlns="http://www.w3.org/2000/svg">
<path d="M5.25083 7C5.25083 6.76794 5.34302 6.54538 5.50711 6.38128C5.67121 6.21719 5.89376 6.125 6.12583 6.125H7.87583V4.375C7.87583 4.14294 7.96802 3.92038 8.13211 3.75628C8.29621 3.59219 8.51876 3.5 8.75083 3.5C8.98289 3.5 9.20545 3.59219 9.36955 3.75628C9.53364 3.92038 9.62583 4.14294 9.62583 4.375V6.125H11.3758C11.6079 6.125 11.8305 6.21719 11.9945 6.38128C12.1586 6.54538 12.2508 6.76794 12.2508 7C12.2508 7.23206 12.1586 7.45462 11.9945 7.61872C11.8305 7.78281 11.6079 7.875 11.3758 7.875H9.62583V9.625C9.62583 9.85706 9.53364 10.0796 9.36955 10.2437C9.20545 10.4078 8.98289 10.5 8.75083 10.5C8.51876 10.5 8.29621 10.4078 8.13211 10.2437C7.96802 10.0796 7.87583 9.85706 7.87583 9.625V7.875H6.12583C5.89376 7.875 5.67121 7.78281 5.50711 7.61872C5.34302 7.45462 5.25083 7.23206 5.25083 7ZM20.1258 21H19.2508V20.125C19.2508 19.8929 19.1586 19.6704 18.9945 19.5063C18.8305 19.3422 18.6079 19.25 18.3758 19.25C18.1438 19.25 17.9212 19.3422 17.7571 19.5063C17.593 19.6704 17.5008 19.8929 17.5008 20.125V21H16.6258C16.3938 21 16.1712 21.0922 16.0071 21.2563C15.843 21.4204 15.7508 21.6429 15.7508 21.875C15.7508 22.1071 15.843 22.3296 16.0071 22.4937C16.1712 22.6578 16.3938 22.75 16.6258 22.75H17.5008V23.625C17.5008 23.8571 17.593 24.0796 17.7571 24.2437C17.9212 24.4078 18.1438 24.5 18.3758 24.5C18.6079 24.5 18.8305 24.4078 18.9945 24.2437C19.1586 24.0796 19.2508 23.8571 19.2508 23.625V22.75H20.1258C20.3579 22.75 20.5805 22.6578 20.7445 22.4937C20.9086 22.3296 21.0008 22.1071 21.0008 21.875C21.0008 21.6429 20.9086 21.4204 20.7445 21.2563C20.5805 21.0922 20.3579 21 20.1258 21ZM26.2508 15.75H24.5008V14C24.5008 13.7679 24.4086 13.5454 24.2445 13.3813C24.0805 13.2172 23.8579 13.125 23.6258 13.125C23.3938 13.125 23.1712 13.2172 23.0071 13.3813C22.843 13.5454 22.7508 13.7679 22.7508 14V15.75H21.0008C20.7688 15.75 20.5462 15.8422 20.3821 16.0063C20.218 16.1704 20.1258 16.3929 20.1258 16.625C20.1258 16.8571 20.218 17.0796 20.3821 17.2437C20.5462 17.4078 20.7688 17.5 21.0008 17.5H22.7508V19.25C22.7508 19.4821 22.843 19.7046 23.0071 19.8687C23.1712 20.0328 23.3938 20.125 23.6258 20.125C23.8579 20.125 24.0805 20.0328 24.2445 19.8687C24.4086 19.7046 24.5008 19.4821 24.5008 19.25V17.5H26.2508C26.4829 17.5 26.7055 17.4078 26.8695 17.2437C27.0336 17.0796 27.1258 16.8571 27.1258 16.625C27.1258 16.3929 27.0336 16.1704 26.8695 16.0063C26.7055 15.8422 26.4829 15.75 26.2508 15.75ZM23.9879 8.75L8.75083 23.987C8.42267 24.315 7.97773 24.4992 7.5138 24.4992C7.04987 24.4992 6.60492 24.315 6.27677 23.987L4.0127 21.7252C3.85016 21.5626 3.72122 21.3697 3.63325 21.1574C3.54528 20.945 3.5 20.7174 3.5 20.4876C3.5 20.2577 3.54528 20.0301 3.63325 19.8178C3.72122 19.6054 3.85016 19.4125 4.0127 19.25L19.2508 4.01297C19.4133 3.85042 19.6063 3.72148 19.8186 3.63351C20.031 3.54554 20.2586 3.50026 20.4884 3.50026C20.7183 3.50026 20.9459 3.54554 21.1582 3.63351C21.3705 3.72148 21.5635 3.85042 21.726 4.01297L23.9879 6.27484C24.1504 6.43735 24.2793 6.63029 24.3673 6.84263C24.4553 7.05498 24.5006 7.28257 24.5006 7.51242C24.5006 7.74227 24.4553 7.96986 24.3673 8.18221C24.2793 8.39456 24.1504 8.58749 23.9879 8.75ZM18.0127 12.25L15.7508 9.98703L5.25083 20.487L7.5127 22.75L18.0127 12.25ZM22.7508 7.51297L20.4879 5.25L16.9879 8.75L19.2508 11.013L22.7508 7.51297Z" fill="white"/>
</svg>
