<svg width="32" height="32" viewBox="0 0 32 32" fill="none" xmlns="http://www.w3.org/2000/svg">
<path d="M26.8919 15.455C26.9563 15.3377 26.9965 15.2087 27.0102 15.0756C27.0238 14.9425 27.0106 14.808 26.9713 14.68C26.932 14.5521 26.8674 14.4334 26.7814 14.3309C26.6954 14.2284 26.5897 14.1442 26.4706 14.0833C26.3514 14.0224 26.2213 13.986 26.0878 13.9763C25.9543 13.9666 25.8203 13.9838 25.6936 14.0268C25.5669 14.0699 25.4501 14.1379 25.3502 14.2269C25.2503 14.316 25.1693 14.4241 25.1119 14.545C24.1875 16.3259 22.746 17.7857 20.9769 18.7325L18.9044 14.0675C19.6965 13.5019 20.3063 12.7174 20.659 11.8103C21.0117 10.9032 21.092 9.91279 20.89 8.96068C20.688 8.00857 20.2125 7.13612 19.5219 6.45033C18.8312 5.76455 17.9554 5.29525 17.0019 5.1V3C17.0019 2.73478 16.8965 2.48043 16.709 2.29289C16.5215 2.10536 16.2671 2 16.0019 2C15.7367 2 15.4823 2.10536 15.2948 2.29289C15.1073 2.48043 15.0019 2.73478 15.0019 3V5.1C14.0484 5.29525 13.1726 5.76455 12.4819 6.45033C11.7913 7.13612 11.3158 8.00857 11.1138 8.96068C10.9118 9.91279 10.9921 10.9032 11.3448 11.8103C11.6975 12.7174 12.3073 13.5019 13.0994 14.0675L7.08815 27.5938C7.03408 27.7139 7.00427 27.8435 7.00043 27.9751C6.99658 28.1068 7.01879 28.2379 7.06577 28.361C7.11275 28.484 7.18358 28.5966 7.27418 28.6922C7.36479 28.7878 7.47339 28.8645 7.59375 28.918C7.7141 28.9715 7.84384 29.0007 7.97552 29.004C8.1072 29.0072 8.23821 28.9844 8.36104 28.9368C8.48387 28.8893 8.5961 28.8179 8.69128 28.7269C8.78645 28.6358 8.8627 28.5269 8.91565 28.4062L12.0581 21.3363C13.326 21.7777 14.6593 22.0021 16.0019 22C17.3452 21.9984 18.6792 21.7785 19.9519 21.3487L23.0882 28.4062C23.1967 28.6473 23.3963 28.8356 23.6433 28.93C23.8903 29.0243 24.1646 29.0169 24.4063 28.9095C24.6479 28.8021 24.8371 28.6033 24.9325 28.3568C25.028 28.1102 25.0219 27.8359 24.9156 27.5938L21.7906 20.5625C23.9759 19.4252 25.7573 17.6416 26.8919 15.455ZM16.0019 7C16.5952 7 17.1753 7.17595 17.6686 7.50559C18.162 7.83524 18.5465 8.30377 18.7735 8.85195C19.0006 9.40013 19.06 10.0033 18.9443 10.5853C18.8285 11.1672 18.5428 11.7018 18.1232 12.1213C17.7037 12.5409 17.1691 12.8266 16.5872 12.9424C16.0052 13.0581 15.402 12.9987 14.8538 12.7716C14.3057 12.5446 13.8371 12.1601 13.5075 11.6667C13.1778 11.1734 13.0019 10.5933 13.0019 10C13.0019 9.20435 13.318 8.44129 13.8806 7.87868C14.4432 7.31607 15.2063 7 16.0019 7ZM16.0019 20C14.9402 20.0013 13.8852 19.8325 12.8769 19.5L14.9294 14.8825C15.6375 15.0392 16.3713 15.0392 17.0794 14.8825L19.1394 19.515C18.1245 19.8363 17.0664 19.9998 16.0019 20Z" fill="white"/>
</svg>
