<svg width="28" height="28" viewBox="0 0 28 28" fill="none" xmlns="http://www.w3.org/2000/svg">
<path d="M13.1005 23.8372C13.0532 24.0265 12.9439 24.1946 12.7901 24.3147C12.6364 24.4348 12.4468 24.5 12.2517 24.5001C12.178 24.5004 12.1045 24.4916 12.033 24.4738L8.53297 23.5988C8.43553 23.5743 8.34304 23.5333 8.25954 23.4774L5.63454 21.7274C5.44149 21.5986 5.30751 21.3984 5.26208 21.1708C5.21664 20.9432 5.26347 20.7069 5.39227 20.5139C5.52107 20.3208 5.72128 20.1869 5.94885 20.1414C6.17643 20.096 6.41274 20.1428 6.60579 20.2716L9.10391 21.9374L12.4573 22.7763C12.5694 22.8035 12.675 22.8525 12.768 22.9206C12.861 22.9887 12.9397 23.0745 12.9994 23.1731C13.0592 23.2717 13.0989 23.3811 13.1162 23.4951C13.1336 23.6091 13.1282 23.7253 13.1005 23.8372ZM27.6134 13.2869C27.5416 13.505 27.4274 13.7067 27.2772 13.8803C27.127 14.054 26.9439 14.1962 26.7384 14.2987L24.1484 15.5937L18.1241 21.6191C18.0171 21.7259 17.8844 21.8032 17.7387 21.8435C17.593 21.8837 17.4394 21.8856 17.2928 21.8488L10.2928 20.0988C10.1864 20.0721 10.0858 20.0257 9.99641 19.9621L3.92391 15.6265L1.26829 14.2987C0.853248 14.0912 0.537597 13.7274 0.390742 13.2872C0.243886 12.847 0.277849 12.3666 0.485162 11.9515L3.20313 6.51662C3.41061 6.10158 3.77442 5.78593 4.21458 5.63908C4.65474 5.49222 5.1352 5.52618 5.55032 5.7335L7.96313 6.93662L13.76 5.28068C13.9173 5.2357 14.084 5.2357 14.2413 5.28068L20.0381 6.93662L22.4509 5.7335C22.8661 5.52618 23.3465 5.49222 23.7867 5.63908C24.2268 5.78593 24.5907 6.10158 24.7981 6.51662L27.5161 11.9515C27.6198 12.1566 27.6817 12.3802 27.6985 12.6095C27.7152 12.8387 27.6863 13.0689 27.6134 13.2869ZM22.5625 14.7022L19.5864 8.75006H16.1061L11.3767 13.3438C12.7614 14.2287 14.9325 14.4726 16.8805 12.5093C17.0326 12.3559 17.2361 12.2643 17.4517 12.252C17.6674 12.2396 17.88 12.3075 18.0486 12.4426L21.8122 15.458L22.5625 14.7022ZM2.05032 12.7335L3.98516 13.7015L6.70313 8.26662L4.76829 7.29865L2.05032 12.7335ZM20.5642 16.6972L17.5334 14.2702C15.3963 16.0202 12.6827 16.251 10.4339 14.8171C10.2127 14.6764 10.0259 14.4878 9.88742 14.2652C9.7489 14.0426 9.66215 13.7918 9.63359 13.5312C9.60503 13.2705 9.63539 13.0069 9.72242 12.7596C9.80945 12.5123 9.95093 12.2877 10.1364 12.1024C10.139 12.0992 10.142 12.0963 10.1452 12.0937L15.0517 7.33475L14.0017 7.03506L8.48704 8.61115L5.49344 14.5972L10.8747 18.4418L17.2338 20.031L20.5642 16.6972ZM25.9498 12.7335L23.2352 7.29865L21.3003 8.26662L24.0183 13.7015L25.9498 12.7335Z" fill="white"/>
</svg>
