<svg width="40" height="41" viewBox="0 0 40 41" fill="none" xmlns="http://www.w3.org/2000/svg">
<g clip-path="url(#clip0_2139_17585)">
<mask id="mask0_2139_17585" style="mask-type:luminance" maskUnits="userSpaceOnUse" x="1" y="2" width="38" height="37">
<path d="M38.3332 2.16675H1.6665V38.8334H38.3332V2.16675Z" fill="white"/>
</mask>
<g mask="url(#mask0_2139_17585)">
<path d="M37.617 38.8334H2.38265C1.98734 38.8334 1.6665 38.5126 1.6665 38.1173C1.6665 37.722 1.98734 37.4011 2.38265 37.4011H37.617C38.0123 37.4011 38.3332 37.722 38.3332 38.1173C38.3332 38.5126 38.0123 38.8334 37.617 38.8334Z" fill="#CFCFCF"/>
<path d="M36.901 38.4753C36.5057 38.4753 36.1849 38.1545 36.1849 37.7592V25.9428H20.7161V37.7592C20.7161 38.1545 20.3953 38.4753 20 38.4753C19.6047 38.4753 19.2839 38.1545 19.2839 37.7592V17.349H3.8151V37.7592C3.8151 38.1545 3.49427 38.4753 3.09896 38.4753C2.70365 38.4753 2.38281 38.1545 2.38281 37.7592V16.6329C2.38281 16.2376 2.70365 15.9167 3.09896 15.9167H20C20.3953 15.9167 20.7161 16.2376 20.7161 16.6329V24.5105H36.901C37.2964 24.5105 37.6172 24.8313 37.6172 25.2266V37.7592C37.6172 38.1545 37.2964 38.4753 36.901 38.4753Z" fill="#CFCFCF"/>
</g>
<path d="M34.1794 10.0443H8.54134C8.14603 10.0443 7.8252 9.72344 7.8252 9.32812V5.7474C7.8252 5.35208 8.14603 5.03125 8.54134 5.03125H34.1794C34.5747 5.03125 34.8955 5.35208 34.8955 5.7474V9.32812C34.8955 9.72344 34.5747 10.0443 34.1794 10.0443ZM9.25749 8.61198H33.4632V6.46354H9.25749V8.61198Z" fill="#CFCFCF"/>
<mask id="mask1_2139_17585" style="mask-type:luminance" maskUnits="userSpaceOnUse" x="1" y="2" width="38" height="37">
<path d="M38.3332 2.16675H1.6665V38.8334H38.3332V2.16675Z" fill="white"/>
</mask>
<g mask="url(#mask1_2139_17585)">
<path d="M30.599 25.5847C30.2036 25.5847 29.8828 25.2639 29.8828 24.8686V9.68628C29.8828 9.29097 30.2036 8.97013 30.599 8.97013C30.9943 8.97013 31.3151 9.29097 31.3151 9.68628V24.8686C31.3151 25.2639 30.9943 25.5847 30.599 25.5847ZM26.3021 25.5847C25.9068 25.5847 25.5859 25.2639 25.5859 24.8686V9.68628C25.5859 9.29097 25.9068 8.97013 26.3021 8.97013C26.6974 8.97013 27.0182 9.29097 27.0182 9.68628V24.8686C27.0182 25.2639 26.6974 25.5847 26.3021 25.5847ZM30.599 6.10555C30.2036 6.10555 29.8828 5.78472 29.8828 5.3894V3.59904H27.0182V5.3894C27.0182 5.78472 26.6974 6.10555 26.3021 6.10555C25.9068 6.10555 25.5859 5.78472 25.5859 5.3894V2.88289C25.5859 2.48758 25.9068 2.16675 26.3021 2.16675H30.599C30.9943 2.16675 31.3151 2.48758 31.3151 2.88289V5.3894C31.3151 5.78472 30.9943 6.10555 30.599 6.10555Z" fill="#CFCFCF"/>
</g>
<path d="M11.5492 16.991C11.1538 16.991 10.833 16.6702 10.833 16.2749V9.68636C10.833 9.29105 11.1538 8.97021 11.5492 8.97021C11.9445 8.97021 12.2653 9.29105 12.2653 9.68636V16.2749C12.2653 16.6702 11.9445 16.991 11.5492 16.991Z" fill="#CFCFCF"/>
<path d="M26.3379 24.4388C26.1567 24.4388 25.9755 24.3701 25.8359 24.2333C25.5537 23.9561 25.5501 23.5028 25.8273 23.2207L29.5591 19.4258L25.8273 15.6309C25.553 15.3524 25.553 14.9055 25.8273 14.6269L30.0526 10.33C30.3297 10.0479 30.783 10.0443 31.0652 10.3214C31.3473 10.5986 31.3509 11.0519 31.0738 11.3341L27.3419 15.1289L31.0738 18.9238C31.3481 19.2024 31.3481 19.6492 31.0738 19.9278L26.8485 24.2247C26.7082 24.3672 26.5234 24.4388 26.3379 24.4388Z" fill="#CFCFCF"/>
<path d="M15.7746 34.5365H7.32406C6.92874 34.5365 6.60791 34.2157 6.60791 33.8204V29.5235C6.60791 29.1282 6.92874 28.8074 7.32406 28.8074H15.7746C16.1699 28.8074 16.4907 29.1282 16.4907 29.5235V33.8204C16.4907 34.2157 16.1699 34.5365 15.7746 34.5365ZM8.0402 33.1042H15.0584V30.2397H8.0402V33.1042ZM15.7746 25.9428H7.32406C6.92874 25.9428 6.60791 25.622 6.60791 25.2266V20.9298C6.60791 20.5345 6.92874 20.2136 7.32406 20.2136H15.7746C16.1699 20.2136 16.4907 20.5345 16.4907 20.9298V25.2266C16.4907 25.622 16.1699 25.9428 15.7746 25.9428ZM8.0402 24.5105H15.0584V21.6459H8.0402V24.5105Z" fill="#CFCFCF"/>
<path d="M30.5986 30.2397H20.3577C19.9624 30.2397 19.6416 29.9188 19.6416 29.5235C19.6416 29.1282 19.9624 28.8074 20.3577 28.8074H30.5986C30.9939 28.8074 31.3148 29.1282 31.3148 29.5235C31.3148 29.9188 30.9939 30.2397 30.5986 30.2397Z" fill="#CFCFCF"/>
<path d="M30.5986 34.5365H20.3577C19.9624 34.5365 19.6416 34.2157 19.6416 33.8204C19.6416 33.4251 19.9624 33.1042 20.3577 33.1042H30.5986C30.9939 33.1042 31.3148 33.4251 31.3148 33.8204C31.3148 34.2157 30.9939 34.5365 30.5986 34.5365Z" fill="#CFCFCF"/>
</g>
<defs>
<clipPath id="clip0_2139_17585">
<rect width="36.6667" height="36.6667" fill="white" transform="translate(1.6665 2.16675)"/>
</clipPath>
</defs>
</svg>
