<svg width="28" height="28" viewBox="0 0 28 28" fill="none" xmlns="http://www.w3.org/2000/svg">
<path d="M24.7767 6.16979L14.2767 2.66979C14.0971 2.60991 13.9029 2.60991 13.7233 2.66979L3.22328 6.16979C3.04905 6.22787 2.89752 6.3393 2.79014 6.48829C2.68276 6.63728 2.62499 6.81629 2.625 6.99994V15.7499C2.625 15.982 2.71719 16.2046 2.88128 16.3687C3.04538 16.5328 3.26794 16.6249 3.5 16.6249C3.73206 16.6249 3.95462 16.5328 4.11872 16.3687C4.28281 16.2046 4.375 15.982 4.375 15.7499V8.214L8.04891 9.43791C7.0728 11.0149 6.7624 12.9148 7.18587 14.7204C7.60933 16.526 8.73205 18.0898 10.3075 19.0684C8.33875 19.8406 6.63688 21.2373 5.39219 23.147C5.32745 23.2432 5.28249 23.3513 5.25991 23.465C5.23733 23.5788 5.23758 23.6959 5.26065 23.8095C5.28373 23.9232 5.32916 24.0311 5.3943 24.127C5.45945 24.2229 5.54302 24.305 5.64014 24.3683C5.73727 24.4317 5.84602 24.4751 5.96007 24.496C6.07412 24.517 6.1912 24.5151 6.3045 24.4904C6.4178 24.4657 6.52506 24.4187 6.62005 24.3522C6.71504 24.2857 6.79586 24.2009 6.85781 24.1029C8.50609 21.5742 11.1092 20.1249 14 20.1249C16.8908 20.1249 19.4939 21.5742 21.1422 24.1029C21.2705 24.2937 21.4688 24.4262 21.6941 24.472C21.9194 24.5177 22.1536 24.4729 22.3462 24.3473C22.5387 24.2218 22.6741 24.0254 22.7231 23.8008C22.772 23.5762 22.7306 23.3413 22.6078 23.147C21.3631 21.2373 19.6547 19.8406 17.6925 19.0684C19.2664 18.0899 20.3881 16.5271 20.8115 14.7228C21.2349 12.9185 20.9255 11.0199 19.9511 9.44338L24.7767 7.83557C24.951 7.77752 25.1026 7.6661 25.21 7.51711C25.3174 7.36811 25.3752 7.18909 25.3752 7.00541C25.3752 6.82173 25.3174 6.64271 25.21 6.49371C25.1026 6.34472 24.951 6.2333 24.7767 6.17526V6.16979ZM19.25 13.1249C19.2502 13.9549 19.0537 14.7732 18.6765 15.5125C18.2992 16.2518 17.7521 16.8912 17.0799 17.3781C16.4078 17.865 15.6297 18.1856 14.8097 18.3136C13.9896 18.4416 13.1509 18.3734 12.3623 18.1145C11.5737 17.8555 10.8577 17.4133 10.2731 16.8241C9.68856 16.2349 9.25199 15.5155 8.99928 14.7249C8.74656 13.9344 8.68489 13.0951 8.81932 12.2761C8.95376 11.457 9.28047 10.6815 9.77266 10.0132L13.7233 11.3257C13.9029 11.3856 14.0971 11.3856 14.2767 11.3257L18.2273 10.0132C18.8921 10.9145 19.2505 12.0051 19.25 13.1249ZM14 9.57791L6.26719 6.99994L14 4.42197L21.7328 6.99994L14 9.57791Z" fill="white"/>
</svg>
