<svg width="48" height="48" viewBox="0 0 48 48" fill="none" xmlns="http://www.w3.org/2000/svg">
<g clip-path="url(#clip0_2148_2279)">
<mask id="mask0_2148_2279" style="mask-type:luminance" maskUnits="userSpaceOnUse" x="2" y="2" width="44" height="44">
<path d="M46 2H2V46H46V2Z" fill="white"/>
</mask>
<g mask="url(#mask0_2148_2279)">
<path d="M45.1406 46H2.85938C2.385 46 2 45.615 2 45.1406C2 44.6662 2.385 44.2812 2.85938 44.2812H45.1406C45.615 44.2812 46 44.6662 46 45.1406C46 45.615 45.615 46 45.1406 46Z" fill="#D2B26C"/>
<path d="M44.2812 45.5703C43.8069 45.5703 43.4219 45.1853 43.4219 44.7109V30.5312H24.8594V44.7109C24.8594 45.1853 24.4744 45.5703 24 45.5703C23.5256 45.5703 23.1406 45.1853 23.1406 44.7109V20.2188H4.57812V44.7109C4.57812 45.1853 4.19313 45.5703 3.71875 45.5703C3.24437 45.5703 2.85938 45.1853 2.85938 44.7109V19.3594C2.85938 18.885 3.24437 18.5 3.71875 18.5H24C24.4744 18.5 24.8594 18.885 24.8594 19.3594V28.8125H44.2812C44.7556 28.8125 45.1406 29.1975 45.1406 29.6719V44.7109C45.1406 45.1853 44.7556 45.5703 44.2812 45.5703Z" fill="#D2B26C"/>
</g>
<path d="M41.0156 11.4531H10.25C9.77562 11.4531 9.39062 11.0681 9.39062 10.5938V6.29688C9.39062 5.8225 9.77562 5.4375 10.25 5.4375H41.0156C41.49 5.4375 41.875 5.8225 41.875 6.29688V10.5938C41.875 11.0681 41.49 11.4531 41.0156 11.4531ZM11.1094 9.73438H40.1562V7.15625H11.1094V9.73438Z" fill="#D2B26C"/>
<mask id="mask1_2148_2279" style="mask-type:luminance" maskUnits="userSpaceOnUse" x="2" y="2" width="44" height="44">
<path d="M46 2H2V46H46V2Z" fill="white"/>
</mask>
<g mask="url(#mask1_2148_2279)">
<path d="M36.7188 30.1016C36.2444 30.1016 35.8594 29.7166 35.8594 29.2422V11.0234C35.8594 10.5491 36.2444 10.1641 36.7188 10.1641C37.1931 10.1641 37.5781 10.5491 37.5781 11.0234V29.2422C37.5781 29.7166 37.1931 30.1016 36.7188 30.1016ZM31.5625 30.1016C31.0881 30.1016 30.7031 29.7166 30.7031 29.2422V11.0234C30.7031 10.5491 31.0881 10.1641 31.5625 10.1641C32.0369 10.1641 32.4219 10.5491 32.4219 11.0234V29.2422C32.4219 29.7166 32.0369 30.1016 31.5625 30.1016ZM36.7188 6.72656C36.2444 6.72656 35.8594 6.34156 35.8594 5.86719V3.71875H32.4219V5.86719C32.4219 6.34156 32.0369 6.72656 31.5625 6.72656C31.0881 6.72656 30.7031 6.34156 30.7031 5.86719V2.85938C30.7031 2.385 31.0881 2 31.5625 2H36.7188C37.1931 2 37.5781 2.385 37.5781 2.85938V5.86719C37.5781 6.34156 37.1931 6.72656 36.7188 6.72656Z" fill="#D2B26C"/>
</g>
<path d="M13.8594 19.7891C13.385 19.7891 13 19.4041 13 18.9297V11.0234C13 10.5491 13.385 10.1641 13.8594 10.1641C14.3338 10.1641 14.7188 10.5491 14.7188 11.0234V18.9297C14.7188 19.4041 14.3338 19.7891 13.8594 19.7891Z" fill="#D2B26C"/>
<path d="M31.6054 28.7265C31.388 28.7265 31.1706 28.644 31.003 28.4799C30.6644 28.1473 30.6601 27.6033 30.9927 27.2647L35.4709 22.7109L30.9927 18.1571C30.6636 17.8228 30.6636 17.2865 30.9927 16.9522L36.063 11.796C36.3956 11.4574 36.9396 11.4531 37.2782 11.7857C37.6168 12.1183 37.6211 12.6622 37.2885 13.0008L32.8103 17.5547L37.2885 22.1085C37.6176 22.4428 37.6176 22.979 37.2885 23.3133L32.2182 28.4696C32.0497 28.6406 31.828 28.7265 31.6054 28.7265Z" fill="#D2B26C"/>
<path d="M18.9297 40.8438H8.78906C8.31469 40.8438 7.92969 40.4587 7.92969 39.9844V34.8281C7.92969 34.3538 8.31469 33.9688 8.78906 33.9688H18.9297C19.4041 33.9688 19.7891 34.3538 19.7891 34.8281V39.9844C19.7891 40.4587 19.4041 40.8438 18.9297 40.8438ZM9.64844 39.125H18.0703V35.6875H9.64844V39.125ZM18.9297 30.5312H8.78906C8.31469 30.5312 7.92969 30.1462 7.92969 29.6719V24.5156C7.92969 24.0412 8.31469 23.6562 8.78906 23.6562H18.9297C19.4041 23.6562 19.7891 24.0412 19.7891 24.5156V29.6719C19.7891 30.1462 19.4041 30.5312 18.9297 30.5312ZM9.64844 28.8125H18.0703V25.375H9.64844V28.8125Z" fill="#D2B26C"/>
<path d="M36.7188 35.6875H24.4297C23.9553 35.6875 23.5703 35.3025 23.5703 34.8281C23.5703 34.3537 23.9553 33.9688 24.4297 33.9688H36.7188C37.1931 33.9688 37.5781 34.3537 37.5781 34.8281C37.5781 35.3025 37.1931 35.6875 36.7188 35.6875Z" fill="#D2B26C"/>
<path d="M36.7188 40.8438H24.4297C23.9553 40.8438 23.5703 40.4588 23.5703 39.9844C23.5703 39.51 23.9553 39.125 24.4297 39.125H36.7188C37.1931 39.125 37.5781 39.51 37.5781 39.9844C37.5781 40.4588 37.1931 40.8438 36.7188 40.8438Z" fill="#D2B26C"/>
</g>
<defs>
<clipPath id="clip0_2148_2279">
<rect width="44" height="44" fill="white" transform="translate(2 2)"/>
</clipPath>
</defs>
</svg>
