<svg width="28" height="28" viewBox="0 0 28 28" fill="none" xmlns="http://www.w3.org/2000/svg">
<path d="M27.0535 16.2805L21.8035 4.03047C21.7361 3.8731 21.624 3.73896 21.4811 3.64467C21.3382 3.55038 21.1708 3.50008 20.9996 3.5H6.99959C6.82839 3.50008 6.66098 3.55038 6.51808 3.64467C6.37519 3.73896 6.26309 3.8731 6.19568 4.03047L0.945685 16.2805C0.88869 16.4135 0.865594 16.5586 0.878467 16.7028C0.89134 16.847 0.93978 16.9857 1.01945 17.1066C1.09911 17.2274 1.20752 17.3266 1.33494 17.3953C1.46237 17.464 1.60484 17.4999 1.74959 17.5H13.1246V22.75H10.4996C10.2675 22.75 10.045 22.8422 9.88087 23.0063C9.71678 23.1704 9.62459 23.3929 9.62459 23.625C9.62459 23.8571 9.71678 24.0796 9.88087 24.2437C10.045 24.4078 10.2675 24.5 10.4996 24.5H17.4996C17.7317 24.5 17.9542 24.4078 18.1183 24.2437C18.2824 24.0796 18.3746 23.8571 18.3746 23.625C18.3746 23.3929 18.2824 23.1704 18.1183 23.0063C17.9542 22.8422 17.7317 22.75 17.4996 22.75H14.8746V17.5H20.9996V21C20.9996 21.2321 21.0918 21.4546 21.2559 21.6187C21.42 21.7828 21.6425 21.875 21.8746 21.875C22.1067 21.875 22.3292 21.7828 22.4933 21.6187C22.6574 21.4546 22.7496 21.2321 22.7496 21V17.5H26.2496C26.3943 17.4999 26.5368 17.464 26.6642 17.3953C26.7917 17.3266 26.9001 17.2274 26.9797 17.1066C27.0594 16.9857 27.1078 16.847 27.1207 16.7028C27.1336 16.5586 27.1105 16.4135 27.0535 16.2805ZM3.07631 15.75L7.57709 5.25H20.4221L24.9229 15.75H3.07631Z" fill="white"/>
</svg>
