<svg width="33" height="33" viewBox="0 0 33 33" fill="none" xmlns="http://www.w3.org/2000/svg">
<path d="M28.7236 9.30529L23.1374 3.72029C22.9516 3.53452 22.7311 3.38716 22.4885 3.28662C22.2458 3.18609 21.9857 3.13434 21.723 3.13434C21.4603 3.13434 21.2002 3.18609 20.9575 3.28662C20.7148 3.38716 20.4943 3.53452 20.3086 3.72029L4.89485 19.134C4.70833 19.3191 4.56045 19.5394 4.4598 19.7821C4.35916 20.0248 4.30776 20.285 4.3086 20.5478V26.134C4.3086 26.6645 4.51932 27.1732 4.89439 27.5483C5.26946 27.9233 5.77817 28.134 6.3086 28.134H27.3086C27.5738 28.134 27.8282 28.0287 28.0157 27.8411C28.2032 27.6536 28.3086 27.3993 28.3086 27.134C28.3086 26.8688 28.2032 26.6145 28.0157 26.4269C27.8282 26.2394 27.5738 26.134 27.3086 26.134H14.7236L28.7236 12.134C28.9094 11.9483 29.0567 11.7278 29.1573 11.4851C29.2578 11.2425 29.3096 10.9823 29.3096 10.7197C29.3096 10.457 29.2578 10.1969 29.1573 9.95419C29.0567 9.71151 28.9094 9.49101 28.7236 9.30529ZM17.3086 9.54779L19.3949 11.634L8.8086 22.2203L6.72235 20.134L17.3086 9.54779ZM6.3086 26.134V22.5478L9.89485 26.134H6.3086ZM12.3086 25.7203L10.2236 23.634L20.8086 13.0478L22.8949 15.134L12.3086 25.7203ZM24.3086 13.7203L18.7236 8.13404L21.7236 5.13404L27.3086 10.7203L24.3086 13.7203Z" fill="white"/>
</svg>
