<svg width="32" height="32" viewBox="0 0 32 32" fill="none" xmlns="http://www.w3.org/2000/svg">
<path d="M30 12.585C30.0008 12.3222 29.9494 12.0619 29.8488 11.8192C29.7481 11.5765 29.6002 11.3563 29.4137 11.1712L20.8287 2.58497C20.643 2.39921 20.4225 2.25185 20.1798 2.15131C19.9371 2.05077 19.677 1.99902 19.4143 1.99902C19.1516 1.99902 18.8915 2.05077 18.6489 2.15131C18.4062 2.25185 18.1857 2.39921 18 2.58497L14.4462 6.13872L7.19621 8.85997C6.86671 8.98285 6.57527 9.19013 6.35107 9.46106C6.12687 9.73199 5.97778 10.0571 5.91871 10.4037L3.01371 27.835C2.98974 27.9783 2.99727 28.1251 3.0358 28.2651C3.07432 28.4052 3.1429 28.5352 3.23677 28.6461C3.33064 28.757 3.44754 28.8461 3.57934 28.9072C3.71114 28.9683 3.85468 29 3.99996 29C4.05523 28.9997 4.1104 28.9951 4.16496 28.9862L21.595 26.0812C21.9412 26.0234 22.2661 25.8755 22.5371 25.6524C22.8081 25.4292 23.0156 25.1387 23.1387 24.81L25.86 17.56L29.4137 14C29.6003 13.8147 29.7483 13.5943 29.8489 13.3513C29.9495 13.1084 30.0009 12.8479 30 12.585ZM21.2662 24.1087L6.91496 26.5L12.8362 20.5787C13.5758 20.9784 14.4345 21.0986 15.2553 20.9172C16.0762 20.7359 16.8044 20.2651 17.3067 19.591C17.809 18.917 18.052 18.0846 17.9911 17.2462C17.9302 16.4077 17.5696 15.6192 16.9752 15.0248C16.3807 14.4303 15.5922 14.0697 14.7538 14.0088C13.9153 13.9479 13.0829 14.1909 12.4089 14.6932C11.7348 15.1955 11.2641 15.9237 11.0827 16.7446C10.9014 17.5654 11.0215 18.4242 11.4212 19.1637L5.49996 25.0875L7.89121 10.7325L14.75 8.16122L23.8375 17.25L21.2662 24.1087ZM13 17.5C13 17.2033 13.0879 16.9133 13.2528 16.6666C13.4176 16.4199 13.6518 16.2277 13.9259 16.1142C14.2 16.0006 14.5016 15.9709 14.7926 16.0288C15.0836 16.0867 15.3508 16.2295 15.5606 16.4393C15.7704 16.6491 15.9133 16.9164 15.9711 17.2073C16.029 17.4983 15.9993 17.7999 15.8858 18.074C15.7722 18.3481 15.58 18.5824 15.3333 18.7472C15.0866 18.912 14.7966 19 14.5 19C14.1021 19 13.7206 18.8419 13.4393 18.5606C13.158 18.2793 13 17.8978 13 17.5ZM25 15.585L16.4137 6.99997L19.4137 3.99997L28 12.585L25 15.585Z" fill="white"/>
</svg>
