<svg width="32" height="32" viewBox="0 0 32 32" fill="none" xmlns="http://www.w3.org/2000/svg">
<path d="M28.3467 8.62501C28.286 8.47508 28.1899 8.3421 28.0666 8.23748C27.9433 8.13286 27.7964 8.05971 27.6386 8.02431C27.4808 7.98892 27.3167 7.99233 27.1605 8.03425C27.0043 8.07617 26.8606 8.15535 26.7417 8.26501L21.7042 12.9138L19.5505 12.4513L19.088 10.2975L23.7367 5.26001C23.8464 5.14112 23.9255 4.99742 23.9675 4.84121C24.0094 4.685 24.0128 4.52096 23.9774 4.36315C23.942 4.20533 23.8689 4.05846 23.7642 3.93513C23.6596 3.81179 23.5266 3.71567 23.3767 3.65501C22.0104 3.1023 20.5292 2.89361 19.0634 3.04728C17.5975 3.20095 16.1918 3.71227 14.9698 4.53632C13.7478 5.36037 12.7469 6.47193 12.055 7.77332C11.3631 9.07472 11.0014 10.5261 11.0017 12C11.0001 13.2446 11.2554 14.4761 11.7517 15.6175L4.22546 22.125C4.20671 22.14 4.18921 22.1575 4.17171 22.1738C3.42148 22.924 3 23.9415 3 25.0025C3 25.5279 3.10347 26.0481 3.30452 26.5334C3.50556 27.0188 3.80023 27.4598 4.17171 27.8313C4.54318 28.2027 4.98419 28.4974 5.46955 28.6985C5.95491 28.8995 6.47511 29.003 7.00046 29.003C8.06144 29.003 9.07898 28.5815 9.82921 27.8313C9.84546 27.815 9.86296 27.7963 9.87796 27.7788L16.3842 20.25C17.7547 20.8516 19.2537 21.1019 20.7453 20.9783C22.237 20.8546 23.6742 20.3608 24.927 19.5417C26.1797 18.7226 27.2084 17.604 27.9199 16.2871C28.6314 14.9703 29.0032 13.4968 29.0017 12C29.0037 10.8432 28.7812 9.69707 28.3467 8.62501ZM20.0017 19C18.818 18.9984 17.654 18.6974 16.618 18.125C16.4172 18.0141 16.1845 17.9756 15.9587 18.0159C15.733 18.0561 15.5279 18.1728 15.378 18.3463L8.39046 26.4388C8.01233 26.798 7.50883 26.9953 6.98731 26.9886C6.46579 26.982 5.9675 26.7718 5.5987 26.403C5.2299 26.0342 5.01975 25.5359 5.01308 25.0144C5.0064 24.4929 5.20372 23.9894 5.56296 23.6113L13.6492 16.625C13.823 16.475 13.9398 16.2697 13.9801 16.0436C14.0204 15.8176 13.9817 15.5846 13.8705 15.3838C13.233 14.2308 12.9338 12.9214 13.0074 11.606C13.0809 10.2906 13.5242 9.02266 14.2862 7.94795C15.0482 6.87324 16.098 6.03538 17.3149 5.53069C18.5319 5.02601 19.8665 4.875 21.1655 5.09501L17.2655 9.32126C17.1569 9.43898 17.0783 9.58103 17.0361 9.73546C16.9939 9.8899 16.9894 10.0522 17.023 10.2088L17.7305 13.5C17.7709 13.6882 17.8649 13.8608 18.001 13.997C18.1372 14.1331 18.3097 14.227 18.498 14.2675L21.7917 14.975C21.9482 15.0086 22.1106 15.0041 22.265 14.9619C22.4194 14.9197 22.5615 14.841 22.6792 14.7325L26.9055 10.8325C27.0739 11.8363 27.0217 12.8647 26.7525 13.8462C26.4833 14.8278 26.0034 15.7389 25.3464 16.5162C24.6894 17.2935 23.8709 17.9184 22.9479 18.3473C22.0249 18.7763 21.0195 18.999 20.0017 19Z" fill="white"/>
</svg>
