<svg width="28" height="28" viewBox="0 0 28 28" fill="none" xmlns="http://www.w3.org/2000/svg">
<path d="M26.7753 16.4499C26.6834 16.5189 26.5788 16.569 26.4675 16.5975C26.3562 16.6261 26.2403 16.6324 26.1266 16.6161C26.0128 16.5999 25.9034 16.5614 25.8045 16.5028C25.7057 16.4443 25.6193 16.3668 25.5503 16.2749C25.0229 15.566 24.3365 14.9908 23.5462 14.5957C22.7559 14.2006 21.8839 13.9965 21.0003 13.9999C20.8283 13.9999 20.66 13.9491 20.5167 13.854C20.3733 13.7589 20.2611 13.6236 20.1942 13.4651C20.1488 13.3574 20.1254 13.2418 20.1254 13.1249C20.1254 13.0081 20.1488 12.8924 20.1942 12.7848C20.2611 12.6262 20.3733 12.4909 20.5167 12.3958C20.66 12.3007 20.8283 12.2499 21.0003 12.2499C21.4913 12.2499 21.9724 12.1121 22.389 11.8524C22.8056 11.5926 23.141 11.2212 23.3571 10.7804C23.5732 10.3396 23.6614 9.84696 23.6116 9.35854C23.5617 8.87012 23.3759 8.40546 23.0753 8.01734C22.7746 7.62922 22.3711 7.3332 21.9107 7.1629C21.4502 6.9926 20.9512 6.95484 20.4703 7.05392C19.9895 7.15301 19.5461 7.38495 19.1904 7.72342C18.8348 8.06188 18.5812 8.4933 18.4585 8.96866C18.4297 9.07998 18.3794 9.18454 18.3102 9.27639C18.2411 9.36824 18.1545 9.44557 18.0555 9.50397C17.9565 9.56237 17.8469 9.6007 17.7331 9.61675C17.6193 9.63281 17.5034 9.62629 17.392 9.59757C17.2807 9.56884 17.1762 9.51847 17.0843 9.44933C16.9925 9.38019 16.9151 9.29364 16.8567 9.19461C16.7983 9.09559 16.76 8.98603 16.744 8.8722C16.7279 8.75836 16.7344 8.64248 16.7631 8.53116C16.9335 7.87197 17.2554 7.26164 17.7031 6.74873C18.1508 6.23582 18.7121 5.83449 19.3423 5.57667C19.9724 5.31885 20.654 5.21165 21.3329 5.26362C22.0117 5.31558 22.6691 5.52526 23.2527 5.87599C23.8362 6.22671 24.3299 6.70879 24.6943 7.28387C25.0588 7.85895 25.284 8.51115 25.3521 9.18859C25.4201 9.86602 25.3291 10.55 25.0863 11.1861C24.8435 11.8222 24.4556 12.3928 23.9535 12.8526C25.1432 13.3677 26.1775 14.1852 26.9536 15.2238C27.0226 15.316 27.0726 15.4208 27.101 15.5324C27.1293 15.6439 27.1354 15.76 27.1189 15.8739C27.1023 15.9877 27.0634 16.0973 27.0045 16.1961C26.9455 16.295 26.8677 16.3812 26.7753 16.4499ZM20.8822 23.1874C20.9455 23.287 20.988 23.3984 21.0072 23.5148C21.0263 23.6313 21.0217 23.7504 20.9937 23.865C20.9656 23.9796 20.9146 24.0874 20.8438 24.1818C20.773 24.2762 20.6838 24.3553 20.5817 24.4144C20.4795 24.4734 20.3664 24.5112 20.2493 24.5254C20.1321 24.5397 20.0133 24.5301 19.9 24.4972C19.7867 24.4643 19.6811 24.4088 19.5898 24.3341C19.4984 24.2594 19.4232 24.167 19.3685 24.0624C18.8173 23.1291 18.0322 22.3556 17.0909 21.8183C16.1495 21.2809 15.0843 20.9983 14.0003 20.9983C12.9164 20.9983 11.8512 21.2809 10.9098 21.8183C9.96842 22.3556 9.18341 23.1291 8.63221 24.0624C8.57751 24.167 8.50222 24.2594 8.41087 24.3341C8.31953 24.4088 8.21401 24.4643 8.10068 24.4972C7.98734 24.5301 7.86852 24.5397 7.75137 24.5254C7.63422 24.5112 7.52116 24.4734 7.41899 24.4144C7.31682 24.3553 7.22766 24.2762 7.15686 24.1818C7.08605 24.0874 7.03508 23.9796 7.00701 23.865C6.97893 23.7504 6.97433 23.6313 6.99348 23.5148C7.01264 23.3984 7.05515 23.287 7.11846 23.1874C7.96677 21.7299 9.26023 20.5828 10.8088 19.9149C9.93741 19.2478 9.29702 18.3243 8.97761 17.2744C8.65821 16.2245 8.67585 15.1009 9.02805 14.0615C9.38026 13.0221 10.0493 12.1192 10.9412 11.4798C11.8331 10.8403 12.9029 10.4964 14.0003 10.4964C15.0978 10.4964 16.1676 10.8403 17.0595 11.4798C17.9513 12.1192 18.6204 13.0221 18.9726 14.0615C19.3248 15.1009 19.3425 16.2245 19.0231 17.2744C18.7036 18.3243 18.0633 19.2478 17.1919 19.9149C18.7404 20.5828 20.0339 21.7299 20.8822 23.1874ZM14.0003 19.2499C14.6926 19.2499 15.3693 19.0446 15.9448 18.6601C16.5204 18.2755 16.969 17.7288 17.2339 17.0893C17.4988 16.4498 17.5681 15.746 17.4331 15.0671C17.298 14.3882 16.9647 13.7645 16.4752 13.275C15.9857 12.7856 15.3621 12.4522 14.6831 12.3172C14.0042 12.1821 13.3005 12.2514 12.6609 12.5163C12.0214 12.7812 11.4748 13.2298 11.0902 13.8054C10.7056 14.381 10.5003 15.0577 10.5003 15.7499C10.5003 16.6782 10.8691 17.5684 11.5255 18.2248C12.1818 18.8812 13.0721 19.2499 14.0003 19.2499ZM7.87533 13.1249C7.87533 12.8928 7.78314 12.6703 7.61905 12.5062C7.45496 12.3421 7.2324 12.2499 7.00033 12.2499C6.50938 12.2499 6.02828 12.1121 5.61167 11.8524C5.19507 11.5926 4.85966 11.2212 4.64355 10.7804C4.42744 10.3396 4.33929 9.84696 4.38911 9.35854C4.43893 8.87012 4.62472 8.40546 4.92539 8.01734C5.22605 7.62922 5.62953 7.3332 6.09 7.1629C6.55047 6.9926 7.04947 6.95484 7.53033 7.05392C8.01118 7.15301 8.45461 7.38495 8.81024 7.72342C9.16588 8.06188 9.41947 8.4933 9.54221 8.96866C9.60022 9.19347 9.74517 9.38603 9.94516 9.50397C10.1451 9.62192 10.3838 9.65558 10.6086 9.59757C10.8334 9.53955 11.026 9.3946 11.1439 9.19461C11.2619 8.99462 11.2955 8.75597 11.2375 8.53116C11.0672 7.87197 10.7453 7.26164 10.2976 6.74873C9.84982 6.23582 9.28855 5.83449 8.65841 5.57667C8.02826 5.31885 7.34665 5.21165 6.66779 5.26362C5.98893 5.31558 5.33156 5.52526 4.748 5.87599C4.16444 6.22671 3.67079 6.70879 3.30632 7.28387C2.94186 7.85895 2.71664 8.51115 2.64859 9.18859C2.58055 9.86602 2.67154 10.55 2.91435 11.1861C3.15715 11.8222 3.54506 12.3928 4.04721 12.8526C2.85861 13.3682 1.82549 14.1857 1.05033 15.2238C0.910948 15.4095 0.851023 15.6429 0.883739 15.8727C0.916456 16.1026 1.03913 16.31 1.22478 16.4494C1.41044 16.5887 1.64385 16.6487 1.87369 16.616C2.10352 16.5832 2.31095 16.4606 2.45033 16.2749C2.97772 15.566 3.66419 14.9908 4.45447 14.5957C5.24476 14.2006 6.11678 13.9965 7.00033 13.9999C7.2324 13.9999 7.45496 13.9077 7.61905 13.7436C7.78314 13.5795 7.87533 13.357 7.87533 13.1249Z" fill="white"/>
</svg>
