<svg width="33" height="33" viewBox="0 0 33 33" fill="none" xmlns="http://www.w3.org/2000/svg">
<path d="M28.6553 8.75904C28.5946 8.60912 28.4985 8.47614 28.3752 8.37151C28.2518 8.26689 28.105 8.19374 27.9472 8.15835C27.7894 8.12295 27.6253 8.12636 27.4691 8.16828C27.3129 8.2102 27.1692 8.28939 27.0503 8.39904L22.0128 13.0478L19.8591 12.5853L19.3966 10.4315L24.0453 5.39404C24.155 5.27516 24.2341 5.13145 24.2761 4.97524C24.318 4.81904 24.3214 4.65499 24.286 4.49718C24.2506 4.33937 24.1775 4.1925 24.0728 4.06916C23.9682 3.94582 23.8352 3.8497 23.6853 3.78904C22.319 3.23633 20.8378 3.02765 19.372 3.18132C17.9061 3.33498 16.5004 3.84631 15.2784 4.67036C14.0564 5.49441 13.0555 6.60596 12.3636 7.90735C11.6717 9.20875 11.31 10.6602 11.3103 12.134C11.3087 13.3786 11.564 14.6102 12.0603 15.7515L4.53405 22.259C4.5153 22.274 4.4978 22.2915 4.4803 22.3078C3.73007 23.058 3.30859 24.0756 3.30859 25.1365C3.30859 25.6619 3.41207 26.1821 3.61311 26.6675C3.81415 27.1528 4.10882 27.5938 4.4803 27.9653C4.85178 28.3368 5.29278 28.6314 5.77814 28.8325C6.2635 29.0335 6.7837 29.137 7.30905 29.137C8.37004 29.137 9.38757 28.7155 10.1378 27.9653C10.1541 27.949 10.1716 27.9303 10.1866 27.9128L16.6928 20.384C18.0633 20.9857 19.5623 21.236 21.0539 21.1123C22.5456 20.9886 23.9828 20.4949 25.2356 19.6758C26.4883 18.8567 27.517 17.738 28.2285 16.4212C28.94 15.1043 29.3118 13.6308 29.3103 12.134C29.3123 10.9773 29.0898 9.83111 28.6553 8.75904ZM20.3103 19.134C19.1266 19.1324 17.9626 18.8314 16.9265 18.259C16.7258 18.1482 16.4931 18.1096 16.2673 18.1499C16.0416 18.1902 15.8365 18.3068 15.6866 18.4803L8.69905 26.5728C8.32093 26.932 7.81743 27.1293 7.2959 27.1227C6.77438 27.116 6.2761 26.9059 5.90729 26.5371C5.53849 26.1682 5.32835 25.67 5.32167 25.1484C5.31499 24.6269 5.51231 24.1234 5.87155 23.7453L13.9578 16.759C14.1316 16.609 14.2484 16.4037 14.2887 16.1777C14.329 15.9517 14.2903 15.7186 14.1791 15.5178C13.5416 14.3648 13.2424 13.0554 13.316 11.74C13.3895 10.4246 13.8327 9.1567 14.5947 8.08198C15.3567 7.00727 16.4066 6.16941 17.6235 5.66473C18.8405 5.16005 20.1751 5.00903 21.4741 5.22904L17.5741 9.45529C17.4655 9.57301 17.3869 9.71506 17.3447 9.8695C17.3025 10.0239 17.298 10.1863 17.3316 10.3428L18.0391 13.634C18.0795 13.8223 18.1735 13.9948 18.3096 14.131C18.4458 14.2671 18.6183 14.3611 18.8066 14.4015L22.1003 15.109C22.2568 15.1426 22.4192 15.1381 22.5736 15.0959C22.728 15.0537 22.8701 14.9751 22.9878 14.8665L27.2141 10.9665C27.3825 11.9703 27.3303 12.9987 27.0611 13.9803C26.7919 14.9618 26.312 15.8729 25.655 16.6502C24.9979 17.4275 24.1795 18.0524 23.2565 18.4813C22.3335 18.9103 21.3281 19.133 20.3103 19.134Z" fill="white"/>
</svg>
