<svg width="28" height="28" viewBox="0 0 28 28" fill="none" xmlns="http://www.w3.org/2000/svg">
<path d="M22.75 6.12504C21.5581 6.12502 20.3766 6.34759 19.2664 6.78129C17.7002 3.53285 14.5359 1.91847 14.3916 1.84629C14.27 1.78546 14.1359 1.75378 14 1.75378C13.8641 1.75378 13.73 1.78546 13.6084 1.84629C13.463 1.91847 10.2998 3.53285 8.73359 6.78129C7.62337 6.34759 6.44193 6.12502 5.25 6.12504C5.01794 6.12504 4.79538 6.21722 4.63128 6.38132C4.46719 6.54541 4.375 6.76797 4.375 7.00004V15.75C4.375 18.3027 5.38906 20.7509 7.1941 22.5559C8.99914 24.361 11.4473 25.375 14 25.375C16.5527 25.375 19.0009 24.361 20.8059 22.5559C22.6109 20.7509 23.625 18.3027 23.625 15.75V7.00004C23.625 6.76797 23.5328 6.54541 23.3687 6.38132C23.2046 6.21722 22.9821 6.12504 22.75 6.12504ZM13.125 23.5769C11.2008 23.3594 9.42383 22.4414 8.13289 20.9979C6.84195 19.5545 6.12724 17.6865 6.125 15.75V14.0482C8.04924 14.2657 9.82617 15.1837 11.1171 16.6271C12.4081 18.0706 13.1228 19.9385 13.125 21.875V23.5769ZM13.125 16.3472C12.3226 15.2035 11.2808 14.2482 10.0719 13.5476C8.86313 12.8471 7.5163 12.4181 6.125 12.2905V7.92316C8.04924 8.14071 9.82617 9.05869 11.1171 10.5021C12.4081 11.9456 13.1228 13.8135 13.125 15.75V16.3472ZM10.2977 7.55894C11.3061 5.45785 13.1862 4.13222 14 3.63238C14.8138 4.13332 16.6939 5.45894 17.7013 7.55894C16.0837 8.56001 14.7964 10.015 14 11.7425C13.2035 10.0147 11.9158 8.55965 10.2977 7.55894ZM21.875 15.75C21.8728 17.6865 21.1581 19.5545 19.8671 20.9979C18.5762 22.4414 16.7992 23.3594 14.875 23.5769V21.875C14.8772 19.9385 15.5919 18.0706 16.8829 16.6271C18.1738 15.1837 19.9508 14.2657 21.875 14.0482V15.75ZM21.875 12.2905C20.4837 12.4181 19.1369 12.8471 17.9281 13.5476C16.7192 14.2482 15.6774 15.2035 14.875 16.3472V15.75C14.8772 13.8135 15.5919 11.9456 16.8829 10.5021C18.1738 9.05869 19.9508 8.14071 21.875 7.92316V12.2905Z" fill="white"/>
</svg>
