<svg width="48" height="48" viewBox="0 0 48 48" fill="none" xmlns="http://www.w3.org/2000/svg">
<g clip-path="url(#clip0_2148_2255)">
<path d="M42.0271 41H5.97289C3.78234 41 2 39.2901 2 37.1895V9.74256C2 9.2857 2.385 8.91492 2.85938 8.91492C3.33375 8.91492 3.71875 9.2857 3.71875 9.74256V37.1895C3.71875 38.378 4.73023 39.3447 5.97289 39.3447H42.0271C43.2698 39.3447 44.2812 38.378 44.2812 37.1895V9.74256C44.2812 9.2857 44.6662 8.91492 45.1406 8.91492C45.615 8.91492 46 9.2857 46 9.74256V37.1895C46 39.2909 44.2177 41 42.0271 41ZM38.8466 10.5702H9.15344C8.67906 10.5702 8.29406 10.1994 8.29406 9.74256C8.29406 9.2857 8.67906 8.91492 9.15344 8.91492H38.8466C39.3209 8.91492 39.7059 9.2857 39.7059 9.74256C39.7059 10.1994 39.3209 10.5702 38.8466 10.5702Z" fill="#D2B26C"/>
<path d="M2.85937 38.1438C2.385 38.1438 2 37.773 2 37.3162V9.77569C2 7.69418 3.76687 6 5.93852 6C8.11016 6 9.87703 7.69418 9.87703 9.77569V36.0135C9.87703 36.4703 9.49203 36.8411 9.01766 36.8411H8.62836C8.31812 36.8411 8.03195 36.6797 7.87898 36.419C7.48453 35.7428 6.74031 35.3232 5.93766 35.3232C4.6718 35.3232 3.71789 36.1798 3.71789 37.3162C3.71789 37.773 3.33289 38.1438 2.85852 38.1438H2.85937ZM5.93852 33.6679C6.74289 33.6679 7.51375 33.9055 8.15828 34.3284V9.77569C8.15828 8.60623 7.16227 7.65528 5.93852 7.65528C4.71477 7.65528 3.71875 8.60623 3.71875 9.77569V34.2845C4.34695 33.8939 5.10922 33.6671 5.93852 33.6671V33.6679ZM45.1406 38.0875C44.6662 38.0875 44.2812 37.7168 44.2812 37.2599C44.2812 36.1558 43.3265 35.3232 42.0615 35.3232C41.2588 35.3232 40.5146 35.7428 40.1202 36.419C39.968 36.6797 39.6819 36.8411 39.3708 36.8411H38.9815C38.5071 36.8411 38.1221 36.4703 38.1221 36.0135V9.77569C38.1221 7.69335 39.889 6 42.0606 6C44.2323 6 45.9991 7.69418 45.9991 9.77569V37.2599C45.9991 37.7168 45.6141 38.0875 45.1398 38.0875H45.1406ZM42.0615 7.65528C40.8369 7.65528 39.8417 8.60623 39.8417 9.77569V34.3284C40.4862 33.9055 41.2571 33.6679 42.0615 33.6679C42.8659 33.6679 43.6376 33.8782 44.2812 34.268V9.77569C44.2812 8.60623 43.2852 7.65528 42.0615 7.65528ZM31.9148 31.7677H26.1708C25.6964 31.7677 25.3114 31.3969 25.3114 30.9401V25.9651H22.6895V30.9401C22.6895 31.3969 22.3045 31.7677 21.8301 31.7677H16.086C15.6116 31.7677 15.2266 31.3969 15.2266 30.9401V20.4522C15.2266 20.1998 15.3461 19.9606 15.5523 19.8042L23.4672 13.7575C23.78 13.5183 24.2226 13.5183 24.5354 13.7575L32.4502 19.8042C32.6556 19.9614 32.7759 20.1998 32.7759 20.4522V30.9401C32.7759 31.3969 32.3909 31.7677 31.9166 31.7677H31.9148ZM27.0302 30.1124H31.0555V20.852L24 15.4616L16.9445 20.852V30.1124H20.9698V25.1375C20.9698 24.6806 21.3548 24.3098 21.8292 24.3098H26.1699C26.6443 24.3098 27.0293 24.6806 27.0293 25.1375V30.1124H27.0302Z" fill="#D2B26C"/>
<path d="M34.4844 36.8759C34.01 36.8759 33.625 36.5051 33.625 36.0482V35.4813H14.375V36.0482C14.375 36.5051 13.99 36.8759 13.5156 36.8759C13.0412 36.8759 12.6562 36.5051 12.6562 36.0482V33.2591C12.6562 32.8022 13.0412 32.4315 13.5156 32.4315C13.99 32.4315 14.375 32.8022 14.375 33.2591V33.826H33.625V33.2591C33.625 32.8022 34.01 32.4315 34.4844 32.4315C34.9587 32.4315 35.3438 32.8022 35.3438 33.2591V36.0482C35.3438 36.5051 34.9587 36.8759 34.4844 36.8759ZM15.151 21.9941C14.8975 21.9941 14.6466 21.8865 14.4773 21.6804C14.1825 21.3221 14.2444 20.8015 14.6165 20.5176L23.4663 13.7558C23.7791 13.5166 24.2217 13.5166 24.5345 13.7558L31.0555 18.7382V17.5828C31.0555 17.126 31.4405 16.7552 31.9148 16.7552C32.3892 16.7552 32.7742 17.126 32.7742 17.5828V20.0517L33.3835 20.5176C33.7556 20.8015 33.8175 21.3221 33.5227 21.6804C33.228 22.0388 32.6874 22.0984 32.3153 21.8145L24 15.4616L15.6847 21.8145C15.5266 21.9354 15.3384 21.9941 15.151 21.9941Z" fill="#D2B26C"/>
</g>
<defs>
<clipPath id="clip0_2148_2255">
<rect width="44" height="35" fill="white" transform="translate(2 6)"/>
</clipPath>
</defs>
</svg>
