<svg width="28" height="28" viewBox="0 0 28 28" fill="none" xmlns="http://www.w3.org/2000/svg">
<g clip-path="url(#clip0_2410_2435)">
<path d="M25.1923 15.4284C24.8667 15.1779 24.4878 15.0059 24.0849 14.9256C23.6819 14.8454 23.266 14.8591 22.8692 14.9658L18.293 16.018C18.3994 15.5682 18.4027 15.1002 18.3026 14.649C18.2024 14.1978 18.0015 13.7751 17.7148 13.4126C17.428 13.0501 17.063 12.7572 16.6469 12.5559C16.2309 12.3545 15.7747 12.25 15.3125 12.25H9.83719C9.37737 12.2488 8.92189 12.3388 8.49705 12.5147C8.07221 12.6906 7.68644 12.949 7.36203 13.2748L4.88797 15.75H1.75C1.28587 15.75 0.840752 15.9344 0.512563 16.2626C0.184374 16.5908 0 17.0359 0 17.5L0 21.875C0 22.3391 0.184374 22.7843 0.512563 23.1124C0.840752 23.4406 1.28587 23.625 1.75 23.625H13.125C13.1965 23.625 13.2678 23.6162 13.3372 23.5988L20.3372 21.8488C20.3818 21.8381 20.4254 21.8235 20.4673 21.805L24.7188 19.9959L24.7669 19.9741C25.1755 19.7699 25.5254 19.4651 25.7836 19.0883C26.0418 18.7115 26.1999 18.2752 26.2429 17.8205C26.2859 17.3658 26.2124 16.9076 26.0294 16.4891C25.8463 16.0706 25.5598 15.7056 25.1967 15.4284H25.1923ZM1.75 17.5H4.375V21.875H1.75V17.5ZM24.0002 18.398L19.8439 20.1677L13.0156 21.875H6.125V16.987L8.60016 14.513C8.76207 14.3498 8.95481 14.2204 9.16718 14.1323C9.37954 14.0442 9.60729 13.9993 9.83719 14H15.3125C15.6606 14 15.9944 14.1383 16.2406 14.3844C16.4867 14.6306 16.625 14.9644 16.625 15.3125C16.625 15.6606 16.4867 15.9944 16.2406 16.2406C15.9944 16.4867 15.6606 16.625 15.3125 16.625H12.25C12.0179 16.625 11.7954 16.7172 11.6313 16.8813C11.4672 17.0454 11.375 17.2679 11.375 17.5C11.375 17.7321 11.4672 17.9546 11.6313 18.1187C11.7954 18.2828 12.0179 18.375 12.25 18.375H15.75C15.8159 18.3748 15.8815 18.3675 15.9458 18.3531L23.2739 16.6677L23.3078 16.6589C23.5315 16.5968 23.7703 16.6196 23.9782 16.723C24.1861 16.8263 24.3484 17.0029 24.4339 17.2188C24.5194 17.4346 24.5221 17.6744 24.4414 17.8921C24.3607 18.1098 24.2024 18.29 23.9969 18.398H24.0002ZM17.9375 10.5C18.1537 10.5002 18.3695 10.4827 18.5828 10.4475C18.8227 11.1601 19.2617 11.7892 19.8478 12.2602C20.4338 12.7313 21.1426 13.0247 21.8901 13.1057C22.6377 13.1868 23.3928 13.0521 24.0662 12.7176C24.7396 12.383 25.3032 11.8627 25.6902 11.2181C26.0773 10.5734 26.2717 9.83139 26.2504 9.07977C26.2292 8.32814 25.9931 7.59832 25.5702 6.97659C25.1473 6.35486 24.5552 5.86723 23.8639 5.57134C23.1727 5.27545 22.4111 5.18368 21.6694 5.30688C21.4384 4.62027 21.0224 4.0107 20.4673 3.54526C19.9122 3.07981 19.2394 2.77653 18.523 2.66879C17.8067 2.56105 17.0745 2.65303 16.407 2.9346C15.7395 3.21618 15.1627 3.67643 14.7399 4.26471C14.3172 4.85299 14.0649 5.5465 14.0109 6.26891C13.9569 6.99132 14.1032 7.71463 14.4338 8.35924C14.7643 9.00385 15.2663 9.54477 15.8845 9.92247C16.5027 10.3002 17.2131 10.5 17.9375 10.5ZM24.5 9.1875C24.5 9.62015 24.3717 10.0431 24.1313 10.4028C23.891 10.7625 23.5493 11.0429 23.1496 11.2085C22.7499 11.3741 22.3101 11.4174 21.8857 11.333C21.4614 11.2486 21.0716 11.0402 20.7657 10.7343C20.4598 10.4284 20.2514 10.0386 20.167 9.61426C20.0826 9.18993 20.1259 8.75009 20.2915 8.35038C20.4571 7.95067 20.7375 7.60903 21.0972 7.36866C21.4569 7.1283 21.8799 7 22.3125 7C22.8927 7 23.4491 7.23047 23.8593 7.64071C24.2695 8.05094 24.5 8.60734 24.5 9.1875ZM17.9375 4.375C18.4147 4.37524 18.8787 4.53152 19.2589 4.82002C19.639 5.10853 19.9144 5.51342 20.043 5.97297C19.5948 6.28829 19.2174 6.69368 18.9349 7.16321C18.6524 7.63273 18.471 8.15605 18.4023 8.69969C18.2496 8.73268 18.0938 8.74954 17.9375 8.75C17.3573 8.75 16.8009 8.51953 16.3907 8.1093C15.9805 7.69906 15.75 7.14266 15.75 6.5625C15.75 5.98234 15.9805 5.42594 16.3907 5.01571C16.8009 4.60547 17.3573 4.375 17.9375 4.375Z" fill="white"/>
</g>
<defs>
<clipPath id="clip0_2410_2435">
<rect width="28" height="28" fill="white"/>
</clipPath>
</defs>
</svg>
