<svg width="48" height="48" viewBox="0 0 48 48" fill="none" xmlns="http://www.w3.org/2000/svg">
<g clip-path="url(#clip0_2148_2316)">
<path d="M27.8827 40.5172H9.40442C8.93004 40.5172 8.54504 40.1322 8.54504 39.6578V30.8114C8.54504 30.337 8.93004 29.952 9.40442 29.952H27.8827C28.3571 29.952 28.7421 30.337 28.7421 30.8114V39.6578C28.7421 40.1322 28.3571 40.5172 27.8827 40.5172ZM10.2638 38.7984H27.0233V31.6708H10.2638V38.7984Z" fill="#D2B26C"/>
<mask id="mask0_2148_2316" style="mask-type:luminance" maskUnits="userSpaceOnUse" x="2" y="2" width="44" height="44">
<path d="M46 2H2V46H46V2Z" fill="white"/>
</mask>
<g mask="url(#mask0_2148_2316)">
<path d="M31.5686 42.1079H27.8827C27.4083 42.1079 27.0233 41.7229 27.0233 41.2485V24.0885C27.0233 21.8086 28.877 19.9532 31.1552 19.9532C33.4334 19.9532 35.2871 21.8086 35.2871 24.0885C35.2871 25.9241 34.0857 27.4847 32.4279 28.0236V41.2485C32.4279 41.7229 32.0429 42.1079 31.5686 42.1079ZM28.7421 40.3891H30.7092V28.1765C30.2907 28.0537 30.0896 27.6962 30.081 27.3722C30.0775 27.2372 30.1042 26.5575 30.9911 26.4698C31.1114 26.4578 31.285 26.4458 31.5221 26.4329C31.5823 26.4294 31.6425 26.4329 31.7018 26.4423C32.77 26.194 33.5683 25.2323 33.5683 24.0885C33.5683 22.7556 32.4855 21.6719 31.1552 21.6719C29.8249 21.6719 28.7421 22.7556 28.7421 24.0885V40.3891Z" fill="#D2B26C"/>
<path d="M9.40438 42.1079H5.71852C5.24414 42.1079 4.85914 41.7229 4.85914 41.2485V28.0236C3.20141 27.4856 2 25.925 2 24.0894C2 21.8086 3.85367 19.954 6.13188 19.954C8.41008 19.954 10.2638 21.8094 10.2638 24.0894V41.2494C10.2638 41.7237 9.87875 42.1087 9.40438 42.1087V42.1079ZM6.57789 40.3891H8.545V24.0885C8.545 22.7556 7.46219 21.6719 6.13188 21.6719C4.80156 21.6719 3.71875 22.7556 3.71875 24.0885C3.71875 25.2332 4.51711 26.194 5.58531 26.4423C5.64461 26.4329 5.70477 26.4303 5.76492 26.4329C6.00211 26.4458 6.1757 26.4578 6.29602 26.4698C7.18289 26.5566 7.20953 27.2364 7.20609 27.3722C7.1975 27.6961 6.99641 28.0528 6.57789 28.1765V40.3891Z" fill="#D2B26C"/>
<path d="M27.8827 31.6707H9.40442C8.93004 31.6707 8.54504 31.2857 8.54504 30.8114V14.7505C8.54504 13.1503 9.847 11.8475 11.448 11.8475H25.8391C27.4393 11.8475 28.7421 13.1495 28.7421 14.7505V30.8114C28.7421 31.2857 28.3571 31.6707 27.8827 31.6707ZM10.2638 29.952H27.0233V14.7505C27.0233 14.0974 26.4922 13.5663 25.8391 13.5663H11.448C10.7949 13.5663 10.2638 14.0974 10.2638 14.7505V29.952Z" fill="#D2B26C"/>
<path d="M27.8827 31.6708H9.40442C8.93004 31.6708 8.54504 31.2858 8.54504 30.8114V28.5908C8.54504 26.9365 9.89083 25.5898 11.546 25.5898H25.7411C27.3954 25.5898 28.7421 26.9365 28.7421 28.5908V30.8114C28.7421 31.2858 28.3571 31.6708 27.8827 31.6708ZM10.2638 29.952H27.0233V28.5908C27.0233 27.8835 26.4484 27.3086 25.7411 27.3086H11.546C10.8387 27.3086 10.2638 27.8835 10.2638 28.5908V29.952Z" fill="#D2B26C"/>
<path d="M44.2813 42.1079H34.9717C34.4973 42.1079 34.1123 41.7229 34.1123 41.2485V39.2513C34.1123 37.8694 35.2364 36.7454 36.6174 36.7454H42.6347C44.0166 36.7454 45.1407 37.8694 45.1407 39.2513V41.2485C45.1407 41.7229 44.7557 42.1079 44.2813 42.1079ZM35.8311 40.3891H43.4219V39.2513C43.4219 38.8173 43.0687 38.4641 42.6347 38.4641H36.6174C36.1834 38.4641 35.8311 38.8173 35.8311 39.2513V40.3891Z" fill="#D2B26C"/>
<path d="M45.1406 17.8606H34.1122C33.8587 17.8606 33.6189 17.7489 33.4557 17.5555C33.2924 17.3622 33.2228 17.1061 33.2657 16.8569L35.0206 6.60709C35.091 6.19459 35.4485 5.89294 35.8679 5.89294H43.3874C43.806 5.89294 44.1635 6.19459 44.2348 6.60709L45.9896 16.8569C46.0326 17.1061 45.963 17.3622 45.7997 17.5555C45.6364 17.7489 45.3958 17.8606 45.1432 17.8606H45.1406ZM35.1306 16.1419H44.1214L42.6613 7.61084H36.5915L35.1314 16.1419H35.1306Z" fill="#D2B26C"/>
<path d="M39.626 38.2897C39.1516 38.2897 38.7666 37.9047 38.7666 37.4303V17.0975C38.7666 16.6231 39.1516 16.2381 39.626 16.2381C40.1004 16.2381 40.4854 16.6231 40.4854 17.0975V37.4294C40.4854 37.9038 40.1004 38.2888 39.626 38.2888V38.2897Z" fill="#D2B26C"/>
</g>
</g>
<defs>
<clipPath id="clip0_2148_2316">
<rect width="44" height="44" fill="white" transform="translate(2 2)"/>
</clipPath>
</defs>
</svg>
