<svg width="40" height="41" viewBox="0 0 40 41" fill="none" xmlns="http://www.w3.org/2000/svg">
<g clip-path="url(#clip0_2139_17611)">
<path d="M23.2353 34.2645H7.83675C7.44144 34.2645 7.12061 33.9437 7.12061 33.5484V26.1764C7.12061 25.781 7.44144 25.4602 7.83675 25.4602H23.2353C23.6306 25.4602 23.9515 25.781 23.9515 26.1764V33.5484C23.9515 33.9437 23.6306 34.2645 23.2353 34.2645ZM8.5529 32.8322H22.5192V26.8925H8.5529V32.8322Z" fill="#CFCFCF"/>
<mask id="mask0_2139_17611" style="mask-type:luminance" maskUnits="userSpaceOnUse" x="1" y="2" width="38" height="37">
<path d="M38.3332 2.16675H1.6665V38.8334H38.3332V2.16675Z" fill="white"/>
</mask>
<g mask="url(#mask0_2139_17611)">
<path d="M26.3067 35.5899H23.2352C22.8399 35.5899 22.519 35.2691 22.519 34.8738V20.5738C22.519 18.6738 24.0638 17.1277 25.9623 17.1277C27.8608 17.1277 29.4055 18.6738 29.4055 20.5738C29.4055 22.1035 28.4043 23.404 27.0229 23.853V34.8738C27.0229 35.2691 26.7021 35.5899 26.3067 35.5899ZM23.9513 34.1576H25.5906V23.9805C25.2418 23.8781 25.0743 23.5802 25.0671 23.3102C25.0642 23.1977 25.0864 22.6313 25.8255 22.5582C25.9257 22.5482 26.0704 22.5382 26.2681 22.5274C26.3182 22.5246 26.3683 22.5274 26.4177 22.5353C27.3079 22.3283 27.9732 21.527 27.9732 20.5738C27.9732 19.463 27.0709 18.56 25.9623 18.56C24.8537 18.56 23.9513 19.463 23.9513 20.5738V34.1576Z" fill="#CFCFCF"/>
<path d="M7.83682 35.5899H4.76527C4.36995 35.5899 4.04912 35.2691 4.04912 34.8738V23.853C2.66768 23.4047 1.6665 22.1042 1.6665 20.5745C1.6665 18.6739 3.21123 17.1284 5.10973 17.1284C7.00824 17.1284 8.55296 18.6746 8.55296 20.5745V34.8745C8.55296 35.2698 8.23213 35.5907 7.83682 35.5907V35.5899ZM5.48141 34.1576H7.12067V20.5738C7.12067 19.4631 6.21833 18.56 5.10973 18.56C4.00114 18.56 3.0988 19.4631 3.0988 20.5738C3.0988 21.5277 3.7641 22.3284 4.65426 22.5353C4.70368 22.5274 4.75381 22.5253 4.80394 22.5274C5.0016 22.5382 5.14626 22.5482 5.24652 22.5582C5.98558 22.6306 6.00778 23.197 6.00492 23.3102C5.99775 23.5802 5.83018 23.8774 5.48141 23.9805V34.1576Z" fill="#CFCFCF"/>
<path d="M23.2353 26.8924H7.83675C7.44144 26.8924 7.12061 26.5716 7.12061 26.1762V12.7922C7.12061 11.4587 8.20557 10.373 9.53975 10.373H21.5323C22.8658 10.373 23.9515 11.458 23.9515 12.7922V26.1762C23.9515 26.5716 23.6306 26.8924 23.2353 26.8924ZM8.5529 25.4601H22.5192V12.7922C22.5192 12.2479 22.0766 11.8053 21.5323 11.8053H9.53975C8.99548 11.8053 8.5529 12.2479 8.5529 12.7922V25.4601Z" fill="#CFCFCF"/>
<path d="M23.2353 26.8924H7.83675C7.44144 26.8924 7.12061 26.5716 7.12061 26.1763V24.3257C7.12061 22.9472 8.24209 21.825 9.62139 21.825H21.4507C22.8293 21.825 23.9515 22.9472 23.9515 24.3257V26.1763C23.9515 26.5716 23.6306 26.8924 23.2353 26.8924ZM8.5529 25.4601H22.5192V24.3257C22.5192 23.7363 22.0401 23.2572 21.4507 23.2572H9.62139C9.032 23.2572 8.5529 23.7363 8.5529 24.3257V25.4601Z" fill="#CFCFCF"/>
<path d="M36.9009 35.5901H29.1429C28.7476 35.5901 28.4268 35.2693 28.4268 34.8739V33.2096C28.4268 32.0581 29.3635 31.1213 30.5143 31.1213H35.5288C36.6803 31.1213 37.6171 32.0581 37.6171 33.2096V34.8739C37.6171 35.2693 37.2962 35.5901 36.9009 35.5901ZM29.859 34.1578H36.1848V33.2096C36.1848 32.848 35.8904 32.5536 35.5288 32.5536H30.5143C30.1527 32.5536 29.859 32.848 29.859 33.2096V34.1578Z" fill="#CFCFCF"/>
<path d="M37.617 15.3839H28.4267C28.2154 15.3839 28.0156 15.2908 27.8796 15.1297C27.7435 14.9686 27.6855 14.7552 27.7213 14.5475L29.1837 6.00601C29.2424 5.66226 29.5403 5.41089 29.8898 5.41089H36.1561C36.5048 5.41089 36.8027 5.66226 36.8622 6.00601L38.3246 14.5475C38.3604 14.7552 38.3024 14.9686 38.1663 15.1297C38.0302 15.2908 37.8297 15.3839 37.6192 15.3839H37.617ZM29.2753 13.9516H36.7677L35.5509 6.84246H30.4928L29.2761 13.9516H29.2753Z" fill="#CFCFCF"/>
<path d="M33.0213 32.408C32.626 32.408 32.3052 32.0872 32.3052 31.6919V14.7479C32.3052 14.3526 32.626 14.0317 33.0213 14.0317C33.4166 14.0317 33.7375 14.3526 33.7375 14.7479V31.6912C33.7375 32.0865 33.4166 32.4073 33.0213 32.4073V32.408Z" fill="#CFCFCF"/>
</g>
</g>
<defs>
<clipPath id="clip0_2139_17611">
<rect width="36.6667" height="36.6667" fill="white" transform="translate(1.6665 2.16675)"/>
</clipPath>
</defs>
</svg>
