<svg width="32" height="32" viewBox="0 0 32 32" fill="none" xmlns="http://www.w3.org/2000/svg">
<path d="M29 11H27V8C27 7.46957 26.7893 6.96086 26.4142 6.58579C26.0391 6.21071 25.5304 6 25 6H6C5.46957 6 4.96086 6.21071 4.58579 6.58579C4.21071 6.96086 4 7.46957 4 8V11H2C1.73478 11 1.48043 11.1054 1.29289 11.2929C1.10536 11.4804 1 11.7348 1 12C1 12.2652 1.10536 12.5196 1.29289 12.7071C1.48043 12.8946 1.73478 13 2 13H4V16C4 16.5304 4.21071 17.0391 4.58579 17.4142C4.96086 17.7893 5.46957 18 6 18H25C25.5304 18 26.0391 17.7893 26.4142 17.4142C26.7893 17.0391 27 16.5304 27 16V13H29V19.25L16.45 22.8312C16.0336 22.9518 15.6675 23.2038 15.4061 23.5496C15.1448 23.8955 15.0023 24.3165 15 24.75V29C15 29.2652 15.1054 29.5196 15.2929 29.7071C15.4804 29.8946 15.7348 30 16 30C16.2652 30 16.5196 29.8946 16.7071 29.7071C16.8946 29.5196 17 29.2652 17 29V24.75L29.55 21.165C29.9657 21.0446 30.3315 20.7932 30.5928 20.4481C30.854 20.103 30.9969 19.6828 31 19.25V13C31 12.4696 30.7893 11.9609 30.4142 11.5858C30.0391 11.2107 29.5304 11 29 11ZM25 16H6V8H25V16Z" fill="white"/>
</svg>
