<svg width="33" height="33" viewBox="0 0 33 33" fill="none" xmlns="http://www.w3.org/2000/svg">
<path d="M27.3097 11.234V9.13403C27.3097 7.80795 26.7829 6.53618 25.8452 5.5985C24.9076 4.66082 23.6358 4.13403 22.3097 4.13403H10.3097C8.98362 4.13403 7.71185 4.66082 6.77417 5.5985C5.83648 6.53618 5.3097 7.80795 5.3097 9.13403V11.234C4.17941 11.4635 3.16323 12.0768 2.43332 12.9698C1.70342 13.8628 1.30469 14.9807 1.30469 16.134C1.30469 17.2874 1.70342 18.4053 2.43332 19.2983C3.16323 20.1913 4.17941 20.8045 5.3097 21.034V25.134C5.3097 25.6645 5.52041 26.1732 5.89549 26.5482C6.27056 26.9233 6.77927 27.134 7.3097 27.134H25.3097C25.8401 27.134 26.3488 26.9233 26.7239 26.5482C27.099 26.1732 27.3097 25.6645 27.3097 25.134V21.034C28.44 20.8045 29.4562 20.1913 30.1861 19.2983C30.916 18.4053 31.3147 17.2874 31.3147 16.134C31.3147 14.9807 30.916 13.8628 30.1861 12.9698C29.4562 12.0768 28.44 11.4635 27.3097 11.234ZM10.3097 6.13403H22.3097C23.1053 6.13403 23.8684 6.4501 24.431 7.01271C24.9936 7.57532 25.3097 8.33838 25.3097 9.13403V11.234C24.1811 11.4661 23.167 12.0802 22.4384 12.9727C21.7097 13.8653 21.3111 14.9818 21.3097 16.134H11.3097C11.3083 14.9818 10.9097 13.8653 10.181 12.9727C9.4524 12.0802 8.43831 11.4661 7.3097 11.234V9.13403C7.3097 8.33838 7.62577 7.57532 8.18838 7.01271C8.75099 6.4501 9.51405 6.13403 10.3097 6.13403ZM26.3584 19.134H26.3097C26.0445 19.134 25.7901 19.2394 25.6026 19.4269C25.4151 19.6145 25.3097 19.8688 25.3097 20.134V25.134H7.3097V20.134C7.3097 19.8688 7.20434 19.6145 7.01681 19.4269C6.82927 19.2394 6.57492 19.134 6.3097 19.134H6.26095C5.66978 19.1244 5.09462 18.9403 4.60773 18.6049C4.12084 18.2695 3.74392 17.7977 3.52431 17.2487C3.30471 16.6998 3.25221 16.0981 3.37341 15.5195C3.49461 14.9408 3.78411 14.4108 4.20554 13.9961C4.62698 13.5814 5.16155 13.3005 5.74213 13.1886C6.3227 13.0767 6.92338 13.1389 7.46873 13.3674C8.01407 13.5958 8.47976 13.9803 8.8073 14.4725C9.13484 14.9647 9.30962 15.5428 9.3097 16.134V21.134C9.3097 21.3993 9.41506 21.6536 9.60259 21.8411C9.79013 22.0287 10.0445 22.134 10.3097 22.134C10.5749 22.134 10.8293 22.0287 11.0168 21.8411C11.2043 21.6536 11.3097 21.3993 11.3097 21.134V18.134H21.3097V21.134C21.3097 21.3993 21.4151 21.6536 21.6026 21.8411C21.7901 22.0287 22.0445 22.134 22.3097 22.134C22.5749 22.134 22.8293 22.0287 23.0168 21.8411C23.2043 21.6536 23.3097 21.3993 23.3097 21.134V16.134C23.3098 15.5428 23.4846 14.9647 23.8121 14.4725C24.1396 13.9803 24.6053 13.5958 25.1507 13.3674C25.696 13.1389 26.2967 13.0767 26.8773 13.1886C27.4578 13.3005 27.9924 13.5814 28.4139 13.9961C28.8353 14.4108 29.1248 14.9408 29.246 15.5195C29.3672 16.0981 29.3147 16.6998 29.0951 17.2487C28.8755 17.7977 28.4986 18.2695 28.0117 18.6049C27.5248 18.9403 26.9496 19.1244 26.3584 19.134Z" fill="white"/>
</svg>
