<svg width="32" height="32" viewBox="0 0 32 32" fill="none" xmlns="http://www.w3.org/2000/svg">
<path d="M12.9722 23.2425C12.9235 23.4363 11.7047 28 5.00096 28C4.73575 28 4.48139 27.8947 4.29386 27.7071C4.10632 27.5196 4.00096 27.2652 4.00096 27C4.00096 20.2963 8.56471 19.0775 8.75846 19.0288C9.01589 18.9645 9.28832 19.005 9.51583 19.1416C9.74333 19.2781 9.90727 19.4995 9.97159 19.7569C10.0359 20.0143 9.99532 20.2867 9.85877 20.5143C9.72222 20.7418 9.50089 20.9057 9.24346 20.97C9.13096 21.0013 6.44096 21.7875 6.04846 25.9525C10.2135 25.56 11.001 22.875 11.0335 22.75C11.0998 22.4929 11.2655 22.2727 11.4942 22.1378C11.7228 22.0029 11.9957 21.9643 12.2528 22.0306C12.5099 22.0969 12.7302 22.2627 12.8651 22.4913C13 22.72 13.0385 22.9929 12.9722 23.25V23.2425ZM24.5972 14.8175L24.001 15.4138V22.705C24.0024 22.9687 23.9515 23.23 23.8511 23.4738C23.7506 23.7175 23.6027 23.9389 23.416 24.125L19.126 28.4125C18.941 28.5988 18.7209 28.7467 18.4785 28.8475C18.236 28.9484 17.976 29.0002 17.7135 29C17.4968 29 17.2815 28.9649 17.076 28.8963C16.7231 28.7795 16.4099 28.5665 16.1718 28.2811C15.9336 27.9957 15.7801 27.6494 15.7285 27.2813L15.0572 22.47L9.53096 16.9438L4.72221 16.2725C4.35364 16.2208 4.00681 16.0673 3.72072 15.8293C3.43464 15.5912 3.22065 15.278 3.10284 14.925C2.98503 14.5719 2.96807 14.193 3.05386 13.8309C3.13965 13.4687 3.3248 13.1377 3.58846 12.875L7.87596 8.58502C8.06206 8.39825 8.28344 8.25035 8.52722 8.14992C8.771 8.04949 9.03231 7.99853 9.29596 8.00002H16.5872L17.1835 7.40377C20.5185 4.07002 24.5372 3.92627 26.1097 4.02002C26.5973 4.04965 27.0572 4.25671 27.4026 4.60212C27.748 4.94754 27.9551 5.40743 27.9847 5.89502C28.076 7.46377 27.9322 11.4825 24.5985 14.8175H24.5972ZM5.00096 14.2925L9.64471 14.94L14.5872 10H9.29596L5.00096 14.2925ZM11.416 16L16.001 20.585L23.1822 13.4038C24.15 12.4425 24.9008 11.2852 25.3842 10.0097C25.8676 8.7342 26.0723 7.36999 25.9847 6.00877C24.6242 5.9244 23.2614 6.13131 21.9872 6.61567C20.713 7.10003 19.5569 7.85069 18.596 8.81752L11.416 16ZM22.001 17.4138L17.0597 22.355L17.7097 27L22.001 22.705V17.4138Z" fill="white"/>
</svg>
