<svg width="28" height="28" viewBox="0 0 28 28" fill="none" xmlns="http://www.w3.org/2000/svg">
<path d="M26.25 20.1251H25.375V6.33287L26.4327 6.10537C26.5474 6.08384 26.6568 6.03955 26.7542 5.9751C26.8516 5.91066 26.9351 5.82737 26.9998 5.73014C27.0645 5.63291 27.1091 5.52371 27.1309 5.40898C27.1528 5.29424 27.1514 5.1763 27.127 5.0621C27.1025 4.9479 27.0554 4.83975 26.9885 4.74402C26.9216 4.6483 26.8362 4.56695 26.7373 4.50475C26.6385 4.44256 26.5282 4.40078 26.4129 4.38189C26.2977 4.36299 26.1798 4.36736 26.0663 4.39474L1.56625 9.64474C1.35518 9.69029 1.16841 9.81227 1.04186 9.98722C0.915303 10.1622 0.857907 10.3777 0.880709 10.5925C0.903511 10.8072 1.0049 11.0059 1.16537 11.1503C1.32585 11.2948 1.53407 11.3749 1.75 11.3751C1.81213 11.3749 1.87408 11.3683 1.93484 11.3554L2.625 11.2077V20.1251H1.75C1.51794 20.1251 1.29538 20.2172 1.13128 20.3813C0.967187 20.5454 0.875 20.768 0.875 21.0001C0.875 21.2321 0.967187 21.4547 1.13128 21.6188C1.29538 21.7829 1.51794 21.8751 1.75 21.8751H26.25C26.4821 21.8751 26.7046 21.7829 26.8687 21.6188C27.0328 21.4547 27.125 21.2321 27.125 21.0001C27.125 20.768 27.0328 20.5454 26.8687 20.3813C26.7046 20.2172 26.4821 20.1251 26.25 20.1251ZM4.375 10.8282L23.625 6.70802V20.1251H21V14.0001C21 13.768 20.9078 13.5454 20.7437 13.3813C20.5796 13.2172 20.3571 13.1251 20.125 13.1251H7.875C7.64294 13.1251 7.42038 13.2172 7.25628 13.3813C7.09219 13.5454 7 13.768 7 14.0001V20.1251H4.375V10.8282ZM19.25 16.6251H8.75V14.8751H19.25V16.6251ZM8.75 18.3751H19.25V20.1251H8.75V18.3751Z" fill="white"/>
</svg>
