<svg width="32" height="32" viewBox="0 0 32 32" fill="none" xmlns="http://www.w3.org/2000/svg">
<path d="M28.416 3.58497C28.1645 3.33363 27.8505 3.15388 27.5065 3.06424C27.1624 2.9746 26.8006 2.9783 26.4585 3.07497H26.4397L2.44724 10.355C2.05668 10.4673 1.70961 10.6959 1.45223 11.0104C1.19486 11.3249 1.0394 11.7103 1.00655 12.1154C0.973697 12.5204 1.06502 12.9259 1.26835 13.2778C1.47169 13.6296 1.77738 13.9112 2.14474 14.085L12.8472 19.1537L17.916 29.8562C18.076 30.199 18.3308 30.4888 18.6501 30.6914C18.9695 30.8941 19.3402 31.0011 19.7185 31C19.776 31 19.8335 30.9975 19.891 30.9925C20.2946 30.9598 20.6786 30.8044 20.9914 30.5473C21.3042 30.2901 21.5309 29.9434 21.641 29.5537L28.916 5.56122C28.916 5.55497 28.916 5.54872 28.916 5.54247C29.0139 5.20117 29.0192 4.83996 28.9313 4.49594C28.8435 4.15192 28.6656 3.8375 28.416 3.58497ZM19.7297 28.9812L19.7235 28.9987L14.8035 18.6125L20.7085 12.7062C20.8881 12.5172 20.9868 12.2654 20.9834 12.0046C20.9801 11.7439 20.875 11.4947 20.6906 11.3103C20.5062 11.1259 20.2571 11.0209 19.9963 11.0175C19.7355 11.0142 19.4838 11.1128 19.2947 11.2925L13.3885 17.1975L3.00099 12.2775H3.01849L27.001 4.99997L19.7297 28.9812Z" fill="white"/>
</svg>
