<svg width="32" height="32" viewBox="0 0 32 32" fill="none" xmlns="http://www.w3.org/2000/svg">
<path d="M28.0006 6V26C28.0006 26.5304 27.7898 27.0391 27.4148 27.4142C27.0397 27.7893 26.531 28 26.0006 28H17.0006C16.7353 28 16.481 27.8946 16.2934 27.7071C16.1059 27.5196 16.0006 27.2652 16.0006 27C16.0006 26.7348 16.1059 26.4804 16.2934 26.2929C16.481 26.1054 16.7353 26 17.0006 26H26.0006V6H6.00056V18C6.00056 18.2652 5.8952 18.5196 5.70766 18.7071C5.52013 18.8946 5.26577 19 5.00056 19C4.73534 19 4.48099 18.8946 4.29345 18.7071C4.10591 18.5196 4.00056 18.2652 4.00056 18V6C4.00056 5.46957 4.21127 4.96086 4.58634 4.58579C4.96142 4.21071 5.47012 4 6.00056 4H26.0006C26.531 4 27.0397 4.21071 27.4148 4.58579C27.7898 4.96086 28.0006 5.46957 28.0006 6ZM15.7081 19.2925C15.6152 19.1995 15.5049 19.1258 15.3835 19.0754C15.2621 19.0251 15.132 18.9992 15.0006 18.9992C14.8691 18.9992 14.739 19.0251 14.6176 19.0754C14.4962 19.1258 14.3859 19.1995 14.2931 19.2925L8.00056 25.5863L5.70806 23.2925C5.61515 23.1996 5.50485 23.1259 5.38345 23.0756C5.26206 23.0253 5.13195 22.9994 5.00056 22.9994C4.86916 22.9994 4.73905 23.0253 4.61766 23.0756C4.49627 23.1259 4.38597 23.1996 4.29306 23.2925C4.20015 23.3854 4.12645 23.4957 4.07616 23.6171C4.02588 23.7385 4 23.8686 4 24C4 24.1314 4.02588 24.2615 4.07616 24.3829C4.12645 24.5043 4.20015 24.6146 4.29306 24.7075L7.29306 27.7075C7.38593 27.8005 7.49622 27.8742 7.61762 27.9246C7.73901 27.9749 7.86914 28.0008 8.00056 28.0008C8.13197 28.0008 8.2621 27.9749 8.3835 27.9246C8.50489 27.8742 8.61518 27.8005 8.70806 27.7075L15.7081 20.7075C15.801 20.6146 15.8748 20.5043 15.9251 20.3829C15.9754 20.2615 16.0013 20.1314 16.0013 20C16.0013 19.8686 15.9754 19.7385 15.9251 19.6171C15.8748 19.4957 15.801 19.3854 15.7081 19.2925Z" fill="white"/>
</svg>
