<svg width="40" height="41" viewBox="0 0 40 41" fill="none" xmlns="http://www.w3.org/2000/svg">
<g clip-path="url(#clip0_2139_17475)">
<path d="M35.0224 34.6667H4.97725C3.15179 34.6667 1.6665 33.2418 1.6665 31.4914V8.6189C1.6665 8.23818 1.98734 7.9292 2.38265 7.9292C2.77796 7.9292 3.0988 8.23818 3.0988 8.6189V31.4914C3.0988 32.4818 3.9417 33.2873 4.97725 33.2873H35.0224C36.058 33.2873 36.9009 32.4818 36.9009 31.4914V8.6189C36.9009 8.23818 37.2217 7.9292 37.617 7.9292C38.0123 7.9292 38.3332 8.23818 38.3332 8.6189V31.4914C38.3332 33.2425 36.8479 34.6667 35.0224 34.6667ZM32.372 9.3086H7.6277C7.23239 9.3086 6.91156 8.99961 6.91156 8.6189C6.91156 8.23818 7.23239 7.9292 7.6277 7.9292H32.372C32.7673 7.9292 33.0881 8.23818 33.0881 8.6189C33.0881 8.99961 32.7673 9.3086 32.372 9.3086Z" fill="#CFCFCF"/>
<path d="M2.38265 32.2865C1.98734 32.2865 1.6665 31.9775 1.6665 31.5968V8.6464C1.6665 6.91181 3.1389 5.5 4.9486 5.5C6.7583 5.5 8.2307 6.91181 8.2307 8.6464V30.5112C8.2307 30.8919 7.90986 31.2009 7.51455 31.2009H7.19014C6.93161 31.2009 6.69313 31.0664 6.56566 30.8492C6.23695 30.2857 5.61676 29.936 4.94788 29.936C3.893 29.936 3.09808 30.6499 3.09808 31.5968C3.09808 31.9775 2.77725 32.2865 2.38193 32.2865H2.38265ZM4.9486 28.5566C5.61891 28.5566 6.2613 28.7546 6.79841 29.107V8.6464C6.79841 7.67186 5.96839 6.8794 4.9486 6.8794C3.92881 6.8794 3.0988 7.67186 3.0988 8.6464V29.0704C3.6223 28.7449 4.25752 28.5559 4.9486 28.5559V28.5566ZM37.617 32.2396C37.2217 32.2396 36.9009 31.9306 36.9009 31.5499C36.9009 30.6299 36.1052 29.936 35.0511 29.936C34.3822 29.936 33.762 30.2857 33.4333 30.8492C33.3065 31.0664 33.0681 31.2009 32.8088 31.2009H32.4844C32.0891 31.2009 31.7683 30.8919 31.7683 30.5112V8.6464C31.7683 6.91112 33.2407 5.5 35.0504 5.5C36.8601 5.5 38.3325 6.91181 38.3325 8.6464V31.5499C38.3325 31.9306 38.0116 32.2396 37.6163 32.2396H37.617ZM35.0511 6.8794C34.0306 6.8794 33.2013 7.67186 33.2013 8.6464V29.107C33.7384 28.7546 34.3808 28.5566 35.0511 28.5566C35.7214 28.5566 36.3645 28.7318 36.9009 29.0567V8.6464C36.9009 7.67186 36.0709 6.8794 35.0511 6.8794ZM26.5955 26.9731H21.8088C21.4135 26.9731 21.0927 26.6641 21.0927 26.2834V22.1376H18.9077V26.2834C18.9077 26.6641 18.5869 26.9731 18.1916 26.9731H13.4049C13.0095 26.9731 12.6887 26.6641 12.6887 26.2834V17.5435C12.6887 17.3332 12.7882 17.1338 12.9601 17.0035L19.5558 11.9645C19.8165 11.7652 20.1853 11.7652 20.446 11.9645L27.0417 17.0035C27.2129 17.1345 27.3131 17.3332 27.3131 17.5435V26.2834C27.3131 26.6641 26.9923 26.9731 26.597 26.9731H26.5955ZM22.525 25.5937H25.8794V17.8766L19.9998 13.3846L14.1203 17.8766V25.5937H17.4747V21.4479C17.4747 21.0672 17.7955 20.7582 18.1909 20.7582H21.8081C22.2034 20.7582 22.5243 21.0672 22.5243 21.4479V25.5937H22.525Z" fill="#CFCFCF"/>
<path d="M28.737 31.2299C28.3417 31.2299 28.0208 30.921 28.0208 30.5402V30.0678H11.9792V30.5402C11.9792 30.921 11.6583 31.2299 11.263 31.2299C10.8677 31.2299 10.5469 30.921 10.5469 30.5402V28.216C10.5469 27.8352 10.8677 27.5263 11.263 27.5263C11.6583 27.5263 11.9792 27.8352 11.9792 28.216V28.6884H28.0208V28.216C28.0208 27.8352 28.3417 27.5263 28.737 27.5263C29.1323 27.5263 29.4531 27.8352 29.4531 28.216V30.5402C29.4531 30.921 29.1323 31.2299 28.737 31.2299ZM12.6258 18.8285C12.4146 18.8285 12.2055 18.7388 12.0644 18.5671C11.8188 18.2684 11.8703 17.8346 12.1804 17.5981L19.5553 11.9632C19.816 11.7639 20.1848 11.7639 20.4454 11.9632L25.8796 16.1152V15.1524C25.8796 14.7717 26.2004 14.4627 26.5957 14.4627C26.991 14.4627 27.3118 14.7717 27.3118 15.1524V17.2098L27.8196 17.5981C28.1297 17.8346 28.1812 18.2684 27.9356 18.5671C27.69 18.8657 27.2395 18.9154 26.9294 18.6788L20 13.3847L13.0706 18.6788C12.9388 18.7795 12.782 18.8285 12.6258 18.8285Z" fill="#CFCFCF"/>
</g>
<defs>
<clipPath id="clip0_2139_17475">
<rect width="36.6667" height="29.1667" fill="white" transform="translate(1.6665 5.5)"/>
</clipPath>
</defs>
</svg>
