<svg width="29" height="29" viewBox="0 0 29 29" fill="none" xmlns="http://www.w3.org/2000/svg">
<g clip-path="url(#clip0_2431_1351)">
<path d="M13.6536 18.0187C14.8263 17.238 15.7166 16.1006 16.1929 14.7747C16.6692 13.4488 16.7062 12.0048 16.2984 10.6563C15.8905 9.30782 15.0596 8.12635 13.9283 7.28663C12.7971 6.44691 11.4257 5.99353 10.0168 5.99353C8.60801 5.99353 7.23657 6.44691 6.10534 7.28663C4.97411 8.12635 4.14314 9.30782 3.73531 10.6563C3.32749 12.0048 3.36446 13.4488 3.84076 14.7747C4.31706 16.1006 5.2074 17.238 6.38012 18.0187C4.25878 18.8005 2.44711 20.2474 1.21543 22.1432C1.1507 22.2394 1.10574 22.3476 1.08316 22.4613C1.06058 22.575 1.06083 22.6921 1.0839 22.8058C1.10697 22.9194 1.1524 23.0273 1.21755 23.1233C1.2827 23.2192 1.36626 23.3012 1.46339 23.3646C1.56052 23.4279 1.66926 23.4713 1.78332 23.4923C1.89737 23.5132 2.01445 23.5113 2.12775 23.4866C2.24105 23.4619 2.34831 23.4149 2.4433 23.3484C2.53828 23.2819 2.6191 23.1972 2.68106 23.0992C3.47555 21.8772 4.5627 20.8731 5.84379 20.1779C7.12487 19.4828 8.55931 19.1187 10.0168 19.1187C11.4744 19.1187 12.9088 19.4828 14.1899 20.1779C15.471 20.8731 16.5581 21.8772 17.3526 23.0992C17.481 23.2899 17.6792 23.4225 17.9045 23.4682C18.1298 23.514 18.3641 23.4692 18.5566 23.3436C18.7492 23.218 18.8846 23.0217 18.9335 22.797C18.9825 22.5724 18.9411 22.3376 18.8182 22.1432C17.5866 20.2474 15.7749 18.8005 13.6536 18.0187ZM5.20434 12.5587C5.20434 11.6069 5.48659 10.6764 6.01539 9.88501C6.5442 9.0936 7.29581 8.47677 8.17517 8.11252C9.05454 7.74828 10.0222 7.65297 10.9557 7.83866C11.8892 8.02436 12.7468 8.4827 13.4198 9.15574C14.0928 9.82878 14.5512 10.6863 14.7369 11.6198C14.9226 12.5534 14.8273 13.521 14.463 14.4004C14.0988 15.2797 13.4819 16.0313 12.6905 16.5601C11.8991 17.0889 10.9687 17.3712 10.0168 17.3712C8.74093 17.3697 7.51769 16.8623 6.61549 15.96C5.71328 15.0578 5.20579 13.8346 5.20434 12.5587ZM28.1884 23.354C27.994 23.4807 27.7573 23.5251 27.5302 23.4773C27.3032 23.4295 27.1044 23.2935 26.9776 23.0992C26.1841 21.8765 25.0971 20.8719 23.8157 20.1771C22.5344 19.4822 21.0995 19.1192 19.6418 19.1212C19.4098 19.1212 19.1872 19.029 19.0231 18.8649C18.859 18.7008 18.7668 18.4783 18.7668 18.2462C18.7668 18.0141 18.859 17.7916 19.0231 17.6275C19.1872 17.4634 19.4098 17.3712 19.6418 17.3712C20.3506 17.3705 21.0504 17.2133 21.6913 16.9108C22.3322 16.6084 22.8984 16.1681 23.3495 15.6214C23.8005 15.0747 24.1252 14.4352 24.3004 13.7484C24.4756 13.0617 24.497 12.3448 24.363 11.6489C24.229 10.9529 23.943 10.2952 23.5253 9.7226C23.1077 9.15002 22.5687 8.67676 21.9469 8.33664C21.3252 7.99651 20.6359 7.7979 19.9285 7.75502C19.2211 7.71213 18.513 7.82601 17.8547 8.08854C17.7473 8.13494 17.6318 8.15935 17.5148 8.16034C17.3979 8.16133 17.282 8.13887 17.1739 8.09429C17.0658 8.04971 16.9677 7.98392 16.8855 7.90079C16.8032 7.81767 16.7385 7.71891 16.695 7.61034C16.6516 7.50177 16.6304 7.38559 16.6326 7.26868C16.6348 7.15177 16.6605 7.03649 16.708 6.92966C16.7556 6.82282 16.824 6.7266 16.9094 6.64667C16.9947 6.56675 17.0952 6.50474 17.205 6.46432C18.7116 5.86347 20.3873 5.84185 21.9089 6.40362C23.4305 6.9654 24.6901 8.07077 25.4448 9.50649C26.1995 10.9422 26.3958 12.6066 25.9958 14.1784C25.5957 15.7503 24.6277 17.1184 23.2786 18.0187C25.3999 18.8005 27.2116 20.2474 28.4432 22.1432C28.57 22.3376 28.6143 22.5743 28.5665 22.8014C28.5188 23.0284 28.3827 23.2272 28.1884 23.354Z" fill="white"/>
</g>
<defs>
<clipPath id="clip0_2431_1351">
<rect width="28" height="28" fill="white" transform="translate(0.828125 0.746216)"/>
</clipPath>
</defs>
</svg>
