<svg width="28" height="28" viewBox="0 0 28 28" fill="none" xmlns="http://www.w3.org/2000/svg">
<path d="M14.0005 3.5C11.9238 3.5 9.89372 4.11581 8.167 5.26957C6.44028 6.42332 5.09447 8.0632 4.29975 9.98182C3.50503 11.9004 3.2971 14.0116 3.70224 16.0484C4.10739 18.0852 5.10741 19.9562 6.57587 21.4246C8.04432 22.8931 9.91524 23.8931 11.952 24.2982C13.9888 24.7034 16.1 24.4955 18.0187 23.7007C19.9373 22.906 21.5772 21.5602 22.7309 19.8335C23.8847 18.1068 24.5005 16.0767 24.5005 14C24.4973 11.2162 23.39 8.54734 21.4216 6.57889C19.4531 4.61045 16.7843 3.50318 14.0005 3.5ZM14.0005 22.75C12.2699 22.75 10.5782 22.2368 9.13925 21.2754C7.70032 20.3139 6.57881 18.9473 5.91654 17.3485C5.25427 15.7496 5.08099 13.9903 5.41862 12.293C5.75624 10.5956 6.58959 9.03652 7.8133 7.81281C9.03701 6.5891 10.5961 5.75575 12.2934 5.41813C13.9908 5.08051 15.7501 5.25379 17.349 5.91605C18.9478 6.57832 20.3144 7.69983 21.2758 9.13876C22.2373 10.5777 22.7505 12.2694 22.7505 14C22.7479 16.3198 21.8252 18.5439 20.1848 20.1843C18.5444 21.8247 16.3203 22.7474 14.0005 22.75ZM6.74455 3.24406L3.24455 6.74406C3.16325 6.82536 3.06674 6.88984 2.96052 6.93384C2.8543 6.97784 2.74046 7.00048 2.62549 7.00048C2.51052 7.00048 2.39667 6.97784 2.29045 6.93384C2.18423 6.88984 2.08772 6.82536 2.00642 6.74406C1.84224 6.57987 1.75 6.35719 1.75 6.125C1.75 5.8928 1.84224 5.67012 2.00642 5.50594L5.50642 2.00594C5.58772 1.92464 5.68423 1.86015 5.79045 1.81615C5.89667 1.77216 6.01052 1.74951 6.12549 1.74951C6.24046 1.74951 6.3543 1.77216 6.46052 1.81615C6.56674 1.86015 6.66325 1.92464 6.74455 2.00594C6.82585 2.08723 6.89033 2.18375 6.93433 2.28996C6.97833 2.39618 7.00097 2.51003 7.00097 2.625C7.00097 2.73997 6.97833 2.85381 6.93433 2.96003C6.89033 3.06625 6.82585 3.16276 6.74455 3.24406ZM25.9946 6.74406C25.9133 6.82542 25.8168 6.88995 25.7106 6.93399C25.6043 6.97802 25.4905 7.00069 25.3755 7.00069C25.2605 7.00069 25.1466 6.97802 25.0404 6.93399C24.9342 6.88995 24.8377 6.82542 24.7564 6.74406L21.2564 3.24406C21.0922 3.07988 21 2.85719 21 2.625C21 2.3928 21.0922 2.17012 21.2564 2.00594C21.4206 1.84175 21.6433 1.74951 21.8755 1.74951C22.1077 1.74951 22.3304 1.84175 22.4946 2.00594L25.9946 5.50594C26.0759 5.5872 26.1404 5.6837 26.1845 5.78993C26.2285 5.89615 26.2512 6.01001 26.2512 6.125C26.2512 6.23999 26.2285 6.35385 26.1845 6.46007C26.1404 6.56629 26.0759 6.6628 25.9946 6.74406ZM20.1255 13.125C20.3576 13.125 20.5801 13.2172 20.7442 13.3813C20.9083 13.5454 21.0005 13.7679 21.0005 14C21.0005 14.2321 20.9083 14.4546 20.7442 14.6187C20.5801 14.7828 20.3576 14.875 20.1255 14.875H14.0005C13.7684 14.875 13.5459 14.7828 13.3818 14.6187C13.2177 14.4546 13.1255 14.2321 13.1255 14V7.875C13.1255 7.64293 13.2177 7.42037 13.3818 7.25628C13.5459 7.09219 13.7684 7 14.0005 7C14.2326 7 14.4551 7.09219 14.6192 7.25628C14.7833 7.42037 14.8755 7.64293 14.8755 7.875V13.125H20.1255Z" fill="white"/>
</svg>
